<svg viewBox="0 0 330 200" xmlns="http://www.w3.org/2000/svg"><g><g><g><g><g><line x1="51.5625" y1="177" x2="46.5625" y2="177" style="visibility: inherit;" fill="rgb(0, 0, 0)" stroke="rgb(204, 204, 204)" stroke-width="1px"></line><line x1="51.5625" y1="160.90909090909088" x2="46.5625" y2="160.90909090909088" style="visibility: inherit;" fill="rgb(0, 0, 0)" stroke="rgb(204, 204, 204)" stroke-width="1px"></line><line x1="51.5625" y1="144.81818181818178" x2="46.5625" y2="144.81818181818178" style="visibility: inherit;" fill="rgb(0, 0, 0)" stroke="rgb(204, 204, 204)" stroke-width="1px"></line><line x1="51.5625" y1="128.7272727272727" x2="46.5625" y2="128.7272727272727" style="visibility: inherit;" fill="rgb(0, 0, 0)" stroke="rgb(204, 204, 204)" stroke-width="1px"></line><line x1="51.5625" y1="112.63636363636375" x2="46.5625" y2="112.63636363636375" style="visibility: inherit;" fill="rgb(0, 0, 0)" stroke="rgb(204, 204, 204)" stroke-width="1px"></line><line x1="51.5625" y1="96.54545454545466" x2="46.5625" y2="96.54545454545466" style="visibility: inherit;" fill="rgb(0, 0, 0)" stroke="rgb(204, 204, 204)" stroke-width="1px"></line><line x1="51.5625" y1="80.45454545454554" x2="46.5625" y2="80.45454545454554" style="visibility: inherit;" fill="rgb(0, 0, 0)" stroke="rgb(204, 204, 204)" stroke-width="1px"></line><line x1="51.5625" y1="64.36363636363643" x2="46.5625" y2="64.36363636363643" style="visibility: inherit;" fill="rgb(0, 0, 0)" stroke="rgb(204, 204, 204)" stroke-width="1px"></line><line x1="51.5625" y1="48.27272727272733" x2="46.5625" y2="48.27272727272733" style="visibility: inherit;" fill="rgb(0, 0, 0)" stroke="rgb(204, 204, 204)" stroke-width="1px"></line><line x1="51.5625" y1="32.181818181818215" x2="46.5625" y2="32.181818181818215" style="visibility: inherit;" fill="rgb(0, 0, 0)" stroke="rgb(204, 204, 204)" stroke-width="1px"></line><line x1="51.5625" y1="16.090909090909115" x2="46.5625" y2="16.090909090909115" style="visibility: inherit;" fill="rgb(0, 0, 0)" stroke="rgb(204, 204, 204)" stroke-width="1px"></line><line x1="51.5625" y1="0" x2="46.5625" y2="0" style="visibility: inherit;" fill="rgb(0, 0, 0)" stroke="rgb(204, 204, 204)" stroke-width="1px"></line></g><g transform="translate(41.5625, 0)"><text x="0" y="177" dx="0em" dy="0.3em" style="text-anchor: end; visibility: hidden; font-family: Roboto, sans-serif; font-size: 12px; font-weight: 200;" fill="rgb(255, 255, 255)" stroke="none" stroke-width="1px">0.9</text><text x="0" y="160.90909090909088" dx="0em" dy="0.3em" style="text-anchor: end; visibility: inherit; font-family: Roboto, sans-serif; font-size: 12px; font-weight: 200;" fill="rgb(255, 255, 255)" stroke="none" stroke-width="1px">0.91</text><text x="0" y="144.81818181818178" dx="0em" dy="0.3em" style="text-anchor: end; visibility: hidden; font-family: Roboto, sans-serif; font-size: 12px; font-weight: 200;" fill="rgb(255, 255, 255)" stroke="none" stroke-width="1px">0.92</text><text x="0" y="128.7272727272727" dx="0em" dy="0.3em" style="text-anchor: end; visibility: inherit; font-family: Roboto, sans-serif; font-size: 12px; font-weight: 200;" fill="rgb(255, 255, 255)" stroke="none" stroke-width="1px">0.93</text><text x="0" y="112.63636363636375" dx="0em" dy="0.3em" style="text-anchor: end; visibility: hidden; font-family: Roboto, sans-serif; font-size: 12px; font-weight: 200;" fill="rgb(255, 255, 255)" stroke="none" stroke-width="1px">0.94</text><text x="0" y="96.54545454545466" dx="0em" dy="0.3em" style="text-anchor: end; visibility: inherit; font-family: Roboto, sans-serif; font-size: 12px; font-weight: 200;" fill="rgb(255, 255, 255)" stroke="none" stroke-width="1px">0.95</text><text x="0" y="80.45454545454554" dx="0em" dy="0.3em" style="text-anchor: end; visibility: hidden; font-family: Roboto, sans-serif; font-size: 12px; font-weight: 200;" fill="rgb(255, 255, 255)" stroke="none" stroke-width="1px">0.96</text><text x="0" y="64.36363636363643" dx="0em" dy="0.3em" style="text-anchor: end; visibility: inherit; font-family: Roboto, sans-serif; font-size: 12px; font-weight: 200;" fill="rgb(255, 255, 255)" stroke="none" stroke-width="1px">0.97</text><text x="0" y="48.27272727272733" dx="0em" dy="0.3em" style="text-anchor: end; visibility: hidden; font-family: Roboto, sans-serif; font-size: 12px; font-weight: 200;" fill="rgb(255, 255, 255)" stroke="none" stroke-width="1px">0.98</text><text x="0" y="32.181818181818215" dx="0em" dy="0.3em" style="text-anchor: end; visibility: inherit; font-family: Roboto, sans-serif; font-size: 12px; font-weight: 200;" fill="rgb(255, 255, 255)" stroke="none" stroke-width="1px">0.99</text><text x="0" y="16.090909090909115" dx="0em" dy="0.3em" style="text-anchor: end; visibility: hidden; font-family: Roboto, sans-serif; font-size: 12px; font-weight: 200;" fill="rgb(255, 255, 255)" stroke="none" stroke-width="1px">1</text><text x="0" y="0" dx="0em" dy="0.3em" style="text-anchor: end; visibility: hidden; font-family: Roboto, sans-serif; font-size: 12px; font-weight: 200;" fill="rgb(255, 255, 255)" stroke="none" stroke-width="1px">1.01</text></g><line x1="51.5625" y1="0" x2="51.5625" y2="177" fill="rgb(0, 0, 0)" stroke="rgb(204, 204, 204)" stroke-width="1px"></line></g></g><g transform="translate(51, 0)" clip-path="url(#clip_0)"><clipPath id="clip_0"><rect width="278" height="177"></rect></clipPath><g><g><g><line x1="0" y1="0" x2="0" y2="177" fill="rgb(0, 0, 0)" stroke="rgb(189, 189, 189)" stroke-width="1px" opacity="0.25"></line><line x1="23.203125" y1="0" x2="23.203125" y2="177" fill="rgb(0, 0, 0)" stroke="rgb(189, 189, 189)" stroke-width="1px" opacity="0.25"></line><line x1="46.40625" y1="0" x2="46.40625" y2="177" fill="rgb(0, 0, 0)" stroke="rgb(189, 189, 189)" stroke-width="1px" opacity="0.25"></line><line x1="69.609375" y1="0" x2="69.609375" y2="177" fill="rgb(0, 0, 0)" stroke="rgb(189, 189, 189)" stroke-width="1px" opacity="0.25"></line><line x1="92.8125" y1="0" x2="92.8125" y2="177" fill="rgb(0, 0, 0)" stroke="rgb(189, 189, 189)" stroke-width="1px" opacity="0.25"></line><line x1="116.015625" y1="0" x2="116.015625" y2="177" fill="rgb(0, 0, 0)" stroke="rgb(189, 189, 189)" stroke-width="1px" opacity="0.25"></line><line x1="139.21875" y1="0" x2="139.21875" y2="177" fill="rgb(0, 0, 0)" stroke="rgb(189, 189, 189)" stroke-width="1px" opacity="0.25"></line><line x1="162.421875" y1="0" x2="162.421875" y2="177" fill="rgb(0, 0, 0)" stroke="rgb(189, 189, 189)" stroke-width="1px" opacity="0.25"></line><line x1="185.625" y1="0" x2="185.625" y2="177" fill="rgb(0, 0, 0)" stroke="rgb(189, 189, 189)" stroke-width="1px" opacity="0.25"></line><line x1="208.828125" y1="0" x2="208.828125" y2="177" fill="rgb(0, 0, 0)" stroke="rgb(189, 189, 189)" stroke-width="1px" opacity="0.25"></line><line x1="232.03125" y1="0" x2="232.03125" y2="177" fill="rgb(0, 0, 0)" stroke="rgb(189, 189, 189)" stroke-width="1px" opacity="0.25"></line><line x1="255.234375" y1="0" x2="255.234375" y2="177" fill="rgb(0, 0, 0)" stroke="rgb(189, 189, 189)" stroke-width="1px" opacity="0.25"></line><line x1="278.4375" y1="0" x2="278.4375" y2="177" fill="rgb(0, 0, 0)" stroke="rgb(189, 189, 189)" stroke-width="1px" opacity="0.25"></line></g><g><line x1="0" y1="177" x2="278.4375" y2="177" fill="rgb(0, 0, 0)" stroke="rgb(189, 189, 189)" stroke-width="1px" opacity="0.25"></line><line x1="0" y1="160.90909090909088" x2="278.4375" y2="160.90909090909088" fill="rgb(0, 0, 0)" stroke="rgb(189, 189, 189)" stroke-width="1px" opacity="0.25"></line><line x1="0" y1="144.81818181818178" x2="278.4375" y2="144.81818181818178" fill="rgb(0, 0, 0)" stroke="rgb(189, 189, 189)" stroke-width="1px" opacity="0.25"></line><line x1="0" y1="128.7272727272727" x2="278.4375" y2="128.7272727272727" fill="rgb(0, 0, 0)" stroke="rgb(189, 189, 189)" stroke-width="1px" opacity="0.25"></line><line x1="0" y1="112.63636363636375" x2="278.4375" y2="112.63636363636375" fill="rgb(0, 0, 0)" stroke="rgb(189, 189, 189)" stroke-width="1px" opacity="0.25"></line><line x1="0" y1="96.54545454545466" x2="278.4375" y2="96.54545454545466" fill="rgb(0, 0, 0)" stroke="rgb(189, 189, 189)" stroke-width="1px" opacity="0.25"></line><line x1="0" y1="80.45454545454554" x2="278.4375" y2="80.45454545454554" fill="rgb(0, 0, 0)" stroke="rgb(189, 189, 189)" stroke-width="1px" opacity="0.25"></line><line x1="0" y1="64.36363636363643" x2="278.4375" y2="64.36363636363643" fill="rgb(0, 0, 0)" stroke="rgb(189, 189, 189)" stroke-width="1px" opacity="0.25"></line><line x1="0" y1="48.27272727272733" x2="278.4375" y2="48.27272727272733" fill="rgb(0, 0, 0)" stroke="rgb(189, 189, 189)" stroke-width="1px" opacity="0.25"></line><line x1="0" y1="32.181818181818215" x2="278.4375" y2="32.181818181818215" fill="rgb(0, 0, 0)" stroke="rgb(189, 189, 189)" stroke-width="1px" opacity="0.25"></line><line x1="0" y1="16.090909090909115" x2="278.4375" y2="16.090909090909115" fill="rgb(0, 0, 0)" stroke="rgb(189, 189, 189)" stroke-width="1px" opacity="0.25"></line><line x1="0" y1="0" x2="278.4375" y2="0" fill="rgb(0, 0, 0)" stroke="rgb(189, 189, 189)" stroke-width="1px" opacity="0.25"></line></g></g></g><g><g><line x1="0" y1="1625.1818181818185" x2="278.4375" y2="1625.1818181818185" fill="rgb(0, 0, 0)" stroke="rgb(153, 153, 153)" stroke-width="1.5px"></line></g></g><g><g><line x1="23.203125" y1="0" x2="23.203125" y2="177" fill="rgb(0, 0, 0)" stroke="rgb(153, 153, 153)" stroke-width="1.5px"></line></g></g><g><g><g><g><g><path stroke="rgb(255, 112, 67)" stroke-width="2px" d="M25.523437499999996,221.42891910630175L27.84375,170.2133297978009L30.1640625,171.87566206625812L32.484375,156.93597301487182L34.8046875,140.35586138522035L37.125,123.3457065066476L39.4453125,154.3444368026174L41.765625,133.51742911831647L44.0859375,121.9879638408629L46.40625,119.22414951288113L48.7265625,120.50643923869647L51.04687499999999,115.05753635844884L53.36718750000001,122.92268599039342L55.6875,106.11405611968887L58.0078125,105.58017163526863L60.328125,97.6718519357575L62.6484375,131.40639360869247L64.96875,112.97697455004662L67.2890625,119.59834269806323L69.609375,97.3889662063865L71.92968750000001,95.8655791144107L74.25,105.5366360001938L76.5703125,95.86731891823108L78.890625,96.37118794137888L81.2109375,94.40847094713988L83.53125,92.50919761709224L85.8515625,89.7296283893219L88.171875,95.79009597985332L90.4921875,90.87168624169145L92.8125,88.41211578581982L95.1328125,86.68408934987671L97.453125,126.58994961450615L99.7734375,101.9754480483735L102.09374999999999,92.56094404768125L104.4140625,97.31479395969583L106.73437500000001,95.34840522511125L109.0546875,105.7026605443876L111.375,117.23073237669841L113.6953125,106.04600786658135L116.015625,93.80639383032468L118.3359375,90.86005767176663L120.65625,96.47910560296158L122.9765625,105.29582301023137L125.296875,95.1080024485468L127.6171875,91.79237629353388L129.9375,92.03617720047964L132.2578125,100.76654633945732L134.578125,102.51213958627451L136.8984375,95.0900233398537L139.21875,90.3929006000716L141.5390625,97.65427897368413L143.85937500000003,97.72710885565442L146.1796875,93.06322058644048L148.5,92.16346827439253L150.8203125,122.51856585418612L153.140625,97.84052532377513L155.4609375,100.36536838332003L157.78125,98.523481158311L160.1015625,95.06123262827144L162.421875,104.43324677323179L164.7421875,102.45818709335025L167.0625,95.67396275605645L169.38281249999997,93.83072351638783L171.703125,98.83666643631749L174.0234375,100.92024362238338L176.34375,99.56275627477429L178.66406250000003,96.82273245950658L180.984375,90.93782916820238L183.3046875,96.89765343566965L185.625,97.83152306552483L187.9453125,101.55859395611358L190.265625,100.72310681494685L192.5859375,99.61171443964308L194.90625,96.93500829286191L197.2265625,92.95927306618279L199.546875,109.17345392153952L201.8671875,100.38866984411324L204.18749999999997,97.63279745371071L206.5078125,107.38566617592194L208.828125,100.72618698852948L211.1484375,98.11802865734553L213.46875000000003,105.4181592620679L215.7890625,97.23165419845674L218.109375,97.6184942884211L220.4296875,99.90974584910997L222.75,99.30305834704298L225.0703125,106.1212011898402L227.390625,105.28306968474692L229.7109375,99.38884109525749L232.03125,102.05844701413515L234.3515625,99.45671398833036L236.671875,97.49290712315462L238.99218749999997,108.94374281165304L241.3125,104.6136790796288L243.6328125,101.60788601607025L245.953125,108.40726393644829L248.27343750000003,104.27655935994109L250.59375,104.5101297613228L252.9140625,101.68089616564563" style="fill: none;" fill="none"></path></g><g><path stroke="rgb(187, 187, 187)" stroke-width="2px" d="M27.84375,200.14300911517734L30.1640625,168.96326037859131L32.484375,152.34986476579456L34.8046875,147.12591851828182L37.125,136.76764079956303L39.4453125,130.84333718647008L41.765625,129.8937632553201L44.0859375,122.82509046988817L46.40625,118.06937656193432L48.7265625,112.7374888884469L51.04687499999999,105.23999352606171L53.36718750000001,101.71903764730615L55.6875,97.89994960016203L58.0078125,94.17868753442222L60.328125,90.93079594202047L62.6484375,85.98641751016784L64.96875,84.31715169516568L67.2890625,82.99147820069447L69.609375,82.40172430166716L71.92968750000001,81.12929950943608L74.25,79.23312783794138L76.5703125,78.42207479443456L78.890625,76.5945932395683L81.2109375,74.55577198007643L83.53125,75.99951397440228L85.8515625,76.2709333425638L88.171875,74.77152962029027L90.4921875,73.78837765678189L92.8125,74.00894927326732L95.1328125,72.91990818773002L97.453125,72.93889160188711L99.7734375,71.94747583492128L102.09374999999999,71.94173779376096L104.4140625,70.47072694167176L106.73437500000001,69.99305482830492L109.0546875,69.84542314437653L111.375,67.96432627936886L113.6953125,68.90060939838295L116.015625,67.67169798445848L118.3359375,67.13168189092295L120.65625,65.92192213749719L122.9765625,65.86006969181676L125.296875,66.86533806847406L127.6171875,67.37281911282899L129.9375,65.28646687226289L132.2578125,65.87106112601445L134.578125,64.8008927452716L136.8984375,62.63289278699243L139.21875,63.57012292401907L141.5390625,63.0886935871778L143.85937500000003,62.94009629681657L146.1796875,62.55315739725967L148.5,63.97306143777473L150.8203125,62.37032897877583L153.140625,61.78405203884613L155.4609375,62.67948453187825L157.78125,62.436369011480615L160.1015625,62.5233218093082L162.421875,61.44975184956599L164.7421875,61.94595301415931L167.0625,61.89917327609664L169.38281249999997,60.616859356663525L171.703125,59.7642518460722L174.0234375,59.99343217556016L176.34375,58.63260650691764L178.66406250000003,59.727540534794386L180.984375,60.15837206652899L183.3046875,59.82079531047481L185.625,59.13623287728464L187.9453125,61.20194515171295L190.265625,59.989371268986844L192.5859375,60.05128786724919L194.90625,59.07090592859866L197.2265625,57.89740563954843L199.546875,57.52106369167557L201.8671875,58.12177134233631L204.18749999999997,58.973580739819965L206.5078125,66.93866593004894L208.828125,63.97935035112437L211.1484375,59.90611454959154L213.46875000000003,57.46443788606944L215.7890625,57.65891805058537L218.109375,56.86203843503196L220.4296875,56.15905749133067L222.75,56.302199573336516L225.0703125,55.16831788604093L227.390625,55.82339363462007L229.7109375,55.5932588044848L232.03125,56.05716698643715L234.3515625,55.13028572260458L236.671875,54.74264375122985L238.99218749999997,55.06645027350357L241.3125,55.32397198709093L243.6328125,53.89574894117882L245.953125,53.976996078089364L248.27343750000003,52.95177092568128L250.59375,53.73439372810654L252.9140625,54.13484369769384" style="fill: none;" fill="none"></path></g><g><path stroke="rgb(238, 51, 119)" stroke-width="2px" d="M23.203125,134.35915075648936L25.523437499999996,123.79829400954998L27.84375,107.05110519467746L30.1640625,104.11446018513372L32.484375,89.10866833225221L34.8046875,83.27473366290276L37.125,88.15378230794879L39.4453125,118.99789166830816L41.765625,92.25304696055788L44.0859375,90.06228421434942L46.40625,82.22632990699492L48.7265625,84.59623095387462L51.04687499999999,91.48192947265042L53.36718750000001,86.4767369355416L55.6875,80.80673515782415L58.0078125,82.13911231327221L60.328125,81.38561641288567L62.6484375,80.79347866902218L64.96875,79.14682188194517L67.2890625,84.9007140234741L69.609375,87.07682057449861L71.92968750000001,100.88684674910964L74.25,86.90121169422943L76.5703125,85.49873714269397L78.890625,79.65871703902893L81.2109375,86.42705488075961L83.53125,82.98580053530402L85.8515625,78.81357642156576L88.171875,78.53836467997895L90.4921875,81.15765180246332L92.8125,81.03375873729775L95.1328125,78.41159526446219L97.453125,79.43135002700743L99.7734375,78.79675482095755L102.09374999999999,77.13925772669867L104.4140625,80.99732596423033L106.73437500000001,80.29519872621177L109.0546875,80.71248597232115L111.375,79.22562908328315L113.6953125,78.54463988966046L116.015625,76.77559721621535L118.3359375,78.01460402420402L120.65625,82.61714502521733L122.9765625,79.91444236924148L125.296875,80.71425391295969L127.6171875,78.82759414650724L129.9375,77.44605040650492L132.2578125,79.98025485415657L134.578125,111.41705270934901L136.8984375,88.71080244598738L139.21875,86.86047414591998L141.5390625,81.20422260202211L143.85937500000003,81.94239961280852L146.1796875,81.23543892455639L148.5,77.86562186570352L150.8203125,82.18029605235867L153.140625,81.59551654326496L155.4609375,83.53743954261589L157.78125,86.12872508663735L160.1015625,80.91654076940651L162.421875,81.66922073306624L164.7421875,79.27226526803473L167.0625,80.44959207356962L169.38281249999997,81.25034794509621L171.703125,83.14979297914253L174.0234375,80.3501998665403L176.34375,78.53478760781731L178.66406250000003,79.76194869299377L180.984375,84.85948570454049L183.3046875,81.28777377947154L185.625,92.62424484071761L187.9453125,86.96955666134131L190.265625,82.32817363726949L192.5859375,81.83276573134704L194.90625,81.10764069264079L197.2265625,81.22015053083352L199.546875,80.05352640608491L201.8671875,79.15597005974449L204.18749999999997,82.81085377197117L206.5078125,81.0601423459414L208.828125,79.71353732942775L211.1484375,79.86557146208374L213.46875000000003,81.29949929670434L215.7890625,84.25834170529002L218.109375,81.23290209604413L220.4296875,80.05680355834394L222.75,79.45567926101518L225.0703125,80.89529002788981L227.390625,80.7670871124724L229.7109375,82.22861635011833L232.03125,80.9105073285251L234.3515625,80.37250866121559L236.671875,81.13091518374117L238.99218749999997,81.0268874262862L241.3125,80.90052996824025L243.6328125,79.97138392149833L245.953125,79.03516585622165L248.27343750000003,79.39236302032968L250.59375,83.17047373598173L252.9140625,80.85369770355194" style="fill: none;" fill="none"></path></g><g><path stroke="rgb(51, 187, 238)" stroke-width="2px" d="M23.203125,279.7471833879296L25.523437499999996,156.0304532589585L27.84375,114.7185494335506L30.1640625,96.5036980470937L32.484375,86.61051170136652L34.8046875,79.2698416635111L37.125,73.72355277820552L39.4453125,70.3308548794581L41.765625,67.01801915419757L44.0859375,64.27366644185423L46.40625,63.36912630343324L48.7265625,61.667123463251116L51.04687499999999,60.50741136782765L53.36718750000001,57.793345851440385L55.6875,56.47315586907434L58.0078125,55.66062537406535L60.328125,54.13170234805882L62.6484375,51.32274961272486L64.96875,51.52246215123361L67.2890625,50.72692725579407L69.609375,50.14885544093989L71.92968750000001,48.15713546228448L74.25,46.57421654977924L76.5703125,46.7652115961493L78.890625,44.373336593944295L81.2109375,43.60919123180754L83.53125,43.26337238716837L85.8515625,46.33775515527553L88.171875,43.815179828929644L90.4921875,42.469450438794844L92.8125,41.102433530332874L95.1328125,39.954060329214215L97.453125,39.03625325884981L99.7734375,38.352005121451946L102.09374999999999,38.42528042169476L104.4140625,37.27344297148605L106.73437500000001,37.450662417889575L109.0546875,36.54972447340119L111.375,35.62075589040357L113.6953125,34.21141302280602L116.015625,33.97370418100651L118.3359375,33.090693202226895L120.65625,33.06300402944061L122.9765625,31.959971083250448L125.296875,32.24935561156668L127.6171875,32.94640259302098L129.9375,32.004685627073606L132.2578125,30.86606344740496L134.578125,31.14630154271717L136.8984375,29.549470648337376L139.21875,29.23877869346586L141.5390625,28.83512267652683L143.85937500000003,28.108707922496375L146.1796875,27.54839998398377L148.5,27.13040382143892L150.8203125,26.898415271887753L153.140625,26.191249106183097L155.4609375,25.68569921705993L157.78125,25.829769917902425L160.1015625,25.219179718944805L162.421875,25.2366327357797L164.7421875,24.942179927362297L167.0625,24.069455699954844L169.38281249999997,22.82400111831421L171.703125,21.532494737221498L174.0234375,21.89800512854463L176.34375,21.444018515024645L178.66406250000003,21.177839208176028L180.984375,20.212830206895784L183.3046875,20.961117397970916L185.625,20.48086962560636L187.9453125,20.25782362372841L190.265625,20.499439034990075L192.5859375,20.36221828632023L194.90625,19.85371088280509L197.2265625,19.299593971184642L199.546875,19.007752438328108L201.8671875,18.88293800219379L204.18749999999997,18.377619021000303L206.5078125,18.173070929850798L208.828125,17.995938534648303L211.1484375,17.82585197330411L213.46875000000003,17.433461591708618L215.7890625,17.482050750208703L218.109375,17.02129649283619L220.4296875,17.027446184468456L222.75,17.00408544382085L225.0703125,16.898459409094478L227.390625,16.846443567376678L229.7109375,16.708511960278255L232.03125,16.57344121287393L234.3515625,16.937217328311135L236.671875,16.58240733026841L238.99218749999997,16.690465809531464L241.3125,16.469181027751965L243.6328125,16.462122001024785L245.953125,16.5350602047429L248.27343750000003,16.52886411170143L250.59375,16.50233050439274L252.9140625,16.395889042934332" style="fill: none;" fill="none"></path></g><g><path stroke="rgb(0, 119, 187)" stroke-width="2px" d="M32.484375,180.85088365173937L34.8046875,172.30834412938802L37.125,166.62788585197166L39.4453125,162.87690135170834L41.765625,160.2192346863528L44.0859375,156.84627783278185L46.40625,155.18238176802245L48.7265625,151.96512188533623L51.04687499999999,149.4445642731428L53.36718750000001,146.3060803726715L55.6875,144.20425728635058L58.0078125,142.56817192675132L60.328125,140.75291418783382L62.6484375,137.99493696708677L64.96875,138.5812982989684L67.2890625,135.64348732366162L69.609375,134.1910423717478L71.92968750000001,134.01700866786663L74.25,132.0793153215408L76.5703125,131.18283883401526L78.890625,131.0520667011012L81.2109375,129.324736227274L83.53125,127.88451779109657L85.8515625,126.61770947297481L88.171875,126.39176205959753L90.4921875,125.63633730369962L92.8125,124.64514328578969L95.1328125,123.69297889192276L97.453125,122.15311116515484L99.7734375,121.75736515937557L102.09374999999999,119.66306942708218L104.4140625,117.6303580369747L106.73437500000001,117.406889443461L109.0546875,116.15384760116004L111.375,115.83181584768855L113.6953125,114.65313685826244L116.015625,114.25059403359985L118.3359375,112.75235672573746L120.65625,111.5702598819728L122.9765625,110.17054416434124L125.296875,109.81081722490995L127.6171875,108.52282824831197L129.9375,108.0921927569462L132.2578125,106.48704204875708L134.578125,105.57640669485265L136.8984375,105.74086270641912L139.21875,103.89016121696366L141.5390625,103.6137755829336L143.85937500000003,102.54644997058371L146.1796875,102.7703301707138L148.5,101.93119520212316L150.8203125,101.01810998393131L153.140625,100.38495778533606L155.4609375,100.12261534591721L157.78125,99.15852115896234L160.1015625,99.10999360167506L162.421875,98.99789969507218L164.7421875,98.17204170543117L167.0625,98.65722373335745L169.38281249999997,97.58630510076645L171.703125,97.01221203905065L174.0234375,96.6654254734295L176.34375,96.87516829920499L178.66406250000003,95.83315537664508L180.984375,95.96391861367127L183.3046875,95.69858653184298L185.625,94.83334633116912L187.9453125,94.61097959959588L190.265625,94.55383134958161L192.5859375,93.64254332990785L194.90625,93.60758695761166L197.2265625,93.20004261180753L199.546875,92.99568139055597L201.8671875,92.6442935835542L204.18749999999997,90.66102023272664L206.5078125,90.25094130594398L208.828125,90.74335622864496L211.1484375,91.56726313443913L213.46875000000003,89.48755122727995L215.7890625,89.35155456466013L218.109375,89.01773644922686L220.4296875,87.6367837160164L222.75,87.58074583672139L225.0703125,87.46672177736252L227.390625,87.63666224286725L229.7109375,86.08630849181802L232.03125,85.88711222655814L234.3515625,85.53705181324653L236.671875,86.24406488206542L238.99218749999997,86.42576724075198L241.3125,85.8747308006543L243.6328125,84.6371976067649L245.953125,85.31544608033967L248.27343750000003,84.5930837580243L250.59375,84.20819199242908L252.9140625,83.41184727740706" style="fill: none;" fill="none"></path></g><g><path stroke="rgb(255, 112, 67)" stroke-width="2px" d="M39.4453125,179.38744044235284L41.765625,174.37556560005495L44.0859375,170.29796554934578L46.40625,166.5101985359239L48.7265625,162.8965379591989L51.04687499999999,159.27781087371255L53.36718750000001,156.5793949265068L55.6875,153.4200713585041L58.0078125,150.61553619615606L60.328125,148.9234173672837L62.6484375,146.6453873061283L64.96875,144.4409639183712L67.2890625,142.10595269847263L69.609375,140.7586873821115L71.92968750000001,138.81834048451918L74.25,137.4479403632109L76.5703125,135.80051479388672L78.890625,134.65482894051323L81.2109375,132.96560387427215L83.53125,131.4604261542573L85.8515625,129.9029262778423L88.171875,128.8301624897366L90.4921875,127.35892304302956L92.8125,126.53244278491162L95.1328125,125.14943941680832L97.453125,123.79771304680169L99.7734375,122.27965016733894L102.09374999999999,121.26683284963983L104.4140625,119.63662494786011L106.73437500000001,118.84404217037566L109.0546875,118.09242561247218L111.375,117.37620732379393L113.6953125,116.22071466999255L116.015625,114.85270617997456L118.3359375,113.85358288956989L120.65625,113.04881415924184L122.9765625,111.87063530254038L125.296875,111.14441282745108L127.6171875,109.78710444898212L129.9375,109.28884270914561L132.2578125,108.43849195995062L134.578125,107.5723354483334L136.8984375,106.60249453139367L139.21875,105.9547561182203L141.5390625,104.96636753959764L143.85937500000003,104.13941641880052L146.1796875,102.8807843141616L148.5,102.3830124259062L150.8203125,101.4082240327907L153.140625,101.05808109138005L155.4609375,99.52342813071947L157.78125,99.3033970177965L160.1015625,98.77360735066827L162.421875,97.69096806400219L164.7421875,96.64062112308203L167.0625,95.9970626125386L169.38281249999997,95.28367403063491L171.703125,94.75165502975565L174.0234375,94.11674326402567L176.34375,93.43051810693593L178.66406250000003,93.4534741509279L180.984375,92.43813813843263L183.3046875,91.8783298100815L185.625,90.8128456782742L187.9453125,90.83795449014376L190.265625,89.84811295039013L192.5859375,89.66840478765648L194.90625,89.22373049231393L197.2265625,88.5365852029238L199.546875,87.83693603025353L201.8671875,87.68199614367026L204.18749999999997,87.19387613310833L206.5078125,86.66986873226992L208.828125,86.48538766806432L211.1484375,86.16405027282053L213.46875000000003,85.50853130615201L215.7890625,84.64270666105804L218.109375,83.94694805616194L220.4296875,83.76813809470349L222.75,83.27381221429474L225.0703125,82.69847000331976L227.390625,82.07736538399199L229.7109375,81.79317796104779L232.03125,81.39633360881417L234.3515625,80.82110293918291L236.671875,80.77296224207181L238.99218749999997,80.21259603822017L241.3125,79.69496257710324L243.6328125,79.0140079935063L245.953125,78.66462796755461L248.27343750000003,78.3008402785382L250.59375,77.95829103151097L252.9140625,77.39701420391779" style="fill: none;" fill="none"></path></g></g></g></g><g opacity="0.2"><g><g><g><path stroke="rgb(255, 112, 67)" stroke-width="2px" d="M25.523437499999996,219.37276359037924L27.84375,153.6681848872792L30.1640625,172.44089425693863L32.484375,151.79095231403005L34.8046875,134.62731313705447L37.125,117.46367396007886L39.4453125,165.06594924493274L41.765625,126.31360797448595L44.0859375,117.99999872120945L46.40625,118.26816110177477L48.7265625,120.94997672601183L51.04687499999999,113.172788143158L53.36718750000001,125.6432020230727L55.6875,100.30003478310329L58.0078125,105.39550365101209L60.328125,94.93640353462916L62.6484375,143.07500358061358L64.96875,106.60233027284798L67.2890625,121.88864096728241L69.609375,89.70685347643769L71.92968750000001,95.3386471054771L74.25,108.88180641694505L76.5703125,92.52275029095738L78.890625,96.54547372731297L81.2109375,93.72957691279328L83.53125,91.85224843025212L85.8515625,88.7681892351671L88.171875,97.8863815394315L90.4921875,89.17043280601506L92.8125,87.56136261333121L95.1328125,86.08637361093004L97.453125,140.39318795637652L99.7734375,93.46141453222798L102.09374999999999,89.30451399629769L104.4140625,98.95912697098476L106.73437500000001,94.66824115406385L109.0546875,109.28414589708504L111.375,121.21823501586918L113.6953125,102.1772673563524L116.015625,89.57277228615504L118.3359375,89.84093466672032L120.65625,98.42270630056211L122.9765625,108.34548165581447L125.296875,91.5840860496868L127.6171875,90.64551771770826L129.9375,92.12050672010945L132.2578125,103.78633754903623L134.578125,103.11593159762299L136.8984375,92.52275029095738L139.21875,88.7681892351671L141.5390625,100.16595359282063L143.85937500000003,97.75230034914887L146.1796875,91.45000485940416L148.5,91.85224843025212L150.8203125,133.01824294437063L153.140625,89.30451399629769L155.4609375,101.23869902437386L157.78125,97.8863815394315L160.1015625,93.8636581030759L162.421875,107.67497979510917L164.7421875,101.77502378550446L167.0625,93.32733334194532L169.38281249999997,93.19315624237065L171.703125,100.56819716366856L174.0234375,101.64094259522182L176.34375,99.0932081612674L178.66406250000003,95.87497186660771L180.984375,88.90227042544974L183.3046875,98.95912697098476L185.625,98.15454391999681L187.9453125,102.84776921705769L190.265625,100.43411597338593L192.5859375,99.22728935155003L194.90625,96.00914896618238L197.2265625,91.5840860496868L199.546875,114.7818583358418L201.8671875,97.35005677830091L204.18749999999997,96.67955491759562L206.5078125,110.75913489948621L208.828125,98.42270630056211L211.1484375,97.21587967872624L213.46875000000003,107.94323808496651L215.7890625,94.39998286420652L218.109375,97.75230034914887L220.4296875,100.70227835395121L222.75,99.0932081612674L225.0703125,108.47956284609711L227.390625,104.9931641708721L229.7109375,97.35005677830091L232.03125,102.98185040734035L234.3515625,98.55678749084477L236.671875,96.81363610787828L238.99218749999997,112.90452985330064L241.3125,103.11593159762299L243.6328125,100.56819716366856L245.953125,110.75913489948621L248.27343750000003,102.84776921705769L250.59375,104.59092060002415L252.9140625,100.70227835395121" style="fill: none;" fill="none"></path></g><g><path stroke="rgb(187, 187, 187)" stroke-width="2px" d="M27.84375,178.3409461758354L30.1640625,158.3614101843401L32.484375,146.62844285097992L34.8046875,145.32100738178605L37.125,133.18579647757792L39.4453125,128.79430181329903L41.765625,129.5653166120703L44.0859375,120.38008371266453L46.40625,116.42440087145027L48.7265625,110.89321608976887L51.04687499999999,102.64664743163371L53.36718750000001,100.50115656852726L55.6875,96.57894607023762L58.0078125,92.8915215188807L60.328125,89.80736641450365L62.6484375,84.27618163282224L64.96875,83.7397609623996L67.2890625,82.53293434056373L69.609375,82.19773136485709L71.92968750000001,80.68917411023924L74.25,78.57725149934944L76.5703125,78.14153558557686L78.890625,75.9624764702537L81.2109375,73.85055385936393L83.53125,76.49889714067635L85.8515625,76.36481595039369L88.171875,74.25289333950391L90.4921875,73.44831028851597L92.8125,74.08524389700459L95.1328125,72.54321429946208L97.453125,72.94545787031004L99.7734375,71.6045500581915L102.09374999999999,71.93975303389811L104.4140625,69.961911613291L106.73437500000001,69.82783042300834L109.0546875,69.7943580800837L111.375,67.31366424127062L113.6953125,69.22446506673643L116.015625,67.24662364612928L118.3359375,66.9448930133473L120.65625,65.50347226316282L122.9765625,65.83867523886943L125.296875,67.2130553939126L127.6171875,67.54835427891126L129.9375,64.56480802189222L132.2578125,66.07326936721803L134.578125,64.43072683160958L136.8984375,61.88299239765516L139.21875,63.89430616118693L141.5390625,62.922169576991706L143.85937500000003,62.888697234067074L146.1796875,62.419317158785745L148.5,64.46419917453422L150.8203125,61.81595180251384L153.140625,61.581261764873176L155.4609375,62.98921017213303L157.78125,62.35227656364443L160.1015625,62.5533983490684L162.421875,61.078409346667215L164.7421875,62.11758652600376L167.0625,61.88299239765516L169.38281249999997,60.173313357613324L171.703125,59.46933915398339L174.0234375,60.07270451025532L176.34375,58.161903684789515L178.66406250000003,60.10627276247201L180.984375,60.30739454789597L183.3046875,59.70402919162406L185.625,58.899446140636115L187.9453125,61.91646474057981L190.265625,59.5699480013414L192.5859375,60.07270451025532L194.90625,58.73179669813679L197.2265625,57.491497733376264L199.546875,57.39088888601826L201.8671875,58.32955312728884L204.18749999999997,59.26821736855942L206.5078125,69.6937492327257L208.828125,62.955737829208395L211.1484375,58.497202569788186L213.46875000000003,56.619874087247005L215.7890625,57.72618777101693L218.109375,56.58640174432236L220.4296875,55.91589988361707L222.75,56.35171170668171L225.0703125,54.77611385692252L227.390625,56.04998107389973L229.7109375,55.51365631276914L232.03125,56.217630516399055L234.3515625,54.8096821091392L236.671875,54.60856032371523L238.99218749999997,55.17845333706251L241.3125,55.41304746541111L243.6328125,53.40173370187936L245.953125,54.005099058151266L248.27343750000003,52.597150650891415L250.59375,54.005099058151266L252.9140625,54.273357348008616" style="fill: none;" fill="none"></path></g><g><path stroke="rgb(238, 51, 119)" stroke-width="2px" d="M23.203125,134.35915075648916L25.523437499999996,121.08415382558653L27.84375,101.64094259522182L30.1640625,103.11593159762299L32.484375,83.94088274782357L34.8046875,81.2590671235865L37.125,89.84093466672032L39.4453125,129.66592545942828L41.765625,83.00231441584504L44.0859375,89.30451399629769L46.40625,79.51591574062003L48.7265625,85.4159676595168L51.04687499999999,93.8636581030759L53.36718750000001,84.74546579881151L55.6875,78.84550978920679L58.0078125,82.59997493570503L60.328125,81.12498593330385L62.6484375,80.58866117217326L64.96875,78.57725149934944L67.2890625,86.89095666191797L69.609375,87.8295249938965L71.92968750000001,105.6636660315774L74.25,82.06365017457445L76.5703125,85.01362817937681L78.890625,77.63868316737091L81.2109375,88.7681892351671L83.53125,81.79548779400916L85.8515625,77.37042487751356L88.171875,78.44317030906679L90.4921875,82.06365017457445L92.8125,80.99090474302122L95.1328125,77.50460197708826L97.453125,79.78407812118532L99.7734375,78.57725149934944L102.09374999999999,76.56593773581767L104.4140625,82.33181255513975L106.73437500000001,80.05233641104267L109.0546875,80.85682355273856L111.375,78.71133268963209L113.6953125,78.30908911878416L116.015625,76.16369416496973L118.3359375,78.44317030906679L120.65625,84.20914103768091L122.9765625,78.97959097948944L125.296875,80.99090474302122L127.6171875,78.1750079285015L129.9375,76.96818130666563L132.2578125,80.85682355273856L134.578125,122.29088453813036L136.8984375,80.85682355273856L139.21875,86.22045480121268L141.5390625,79.24775336005473L143.85937500000003,82.19773136485709L146.1796875,80.99090474302122L148.5,76.70001892610033L150.8203125,83.67272036725828L153.140625,81.3932442231612L155.4609375,84.20914103768091L157.78125,87.02503785220063L160.1015625,79.11367216977207L162.421875,81.92956898429179L164.7421875,78.44317030906679L167.0625,80.85682355273856L169.38281249999997,81.52732541344385L171.703125,83.80680155754091L174.0234375,79.38183455033739L176.34375,77.9068455479362L178.66406250000003,80.18641760132532L180.984375,86.62269837206063L183.3046875,80.05233641104267L185.625,96.54547372731297L187.9453125,85.01362817937681L190.265625,80.72274236245592L192.5859375,81.6614066037265L194.90625,80.85682355273856L197.2265625,81.2590671235865L199.546875,79.64999693090269L201.8671875,78.84550978920679L204.18749999999997,84.07505984739826L206.5078125,80.4545799818906L208.828125,79.24775336005473L211.1484375,79.91815931146797L213.46875000000003,81.79548779400916L215.7890625,85.2817905599421L218.109375,80.18641760132532L220.4296875,79.64999693090269L222.75,79.24775336005473L225.0703125,81.3932442231612L227.390625,80.72274236245592L229.7109375,82.73415203527973L232.03125,80.4545799818906L234.3515625,80.18641760132532L236.671875,81.3932442231612L238.99218749999997,80.99090474302122L241.3125,80.85682355273856L243.6328125,79.64999693090269L245.953125,78.71133268963209L248.27343750000003,79.51591574062003L250.59375,84.47730341824622L252.9140625,80.05233641104267" style="fill: none;" fill="none"></path></g><g><path stroke="rgb(51, 187, 238)" stroke-width="2px" d="M23.203125,279.7471833879298L25.523437499999996,124.23525361581285L27.84375,101.3727802146565L30.1640625,90.31021883270961L32.484375,83.203436201269L34.8046875,76.733587178317L37.125,71.80567184361546L39.4453125,69.15742447159509L41.765625,65.87214758179407L44.0859375,63.32441314783966L46.40625,63.05625076727436L48.7265625,61.078409346667215L51.04687499999999,60.10627276247201L53.36718750000001,56.85456412488767L55.6875,56.016508730975076L58.0078125,55.379575122486486L60.328125,53.602855487303316L62.6484375,50.35114684971897L64.96875,51.591541723771556L67.2890625,50.45175569707698L69.609375,49.94890327887104L71.92968750000001,47.46820944005794L74.25,46.0266927805814L76.5703125,46.83127583156934L78.890625,43.54599894176832L81.2109375,43.34487715634434L83.53125,43.14375537092037L85.8515625,47.40116884491662L88.171875,42.94263358549641L90.4921875,42.00396934422581L92.8125,40.62958918918265L95.1328125,39.556843757629416L97.453125,38.71878836371684L99.7734375,38.115327098152875L102.09374999999999,38.45062598315155L104.4140625,36.875028133392355L106.73437500000001,37.51196174188095L109.0546875,36.23809452490376L111.375,35.29943028363316L113.6953125,33.72392834316602L116.015625,33.89148187637331L118.3359375,32.78526410189544L120.65625,33.053426482460736L122.9765625,31.578437480059552L125.296875,32.3494522788308L127.6171875,33.18750767274338L129.9375,31.67895041812552L132.2578125,30.472219705581686L134.578125,31.243234504352937L136.8984375,28.99713479388846L139.21875,29.131311893463156L141.5390625,28.695500070398516L143.85937500000003,27.857444676485944L146.1796875,27.354592258279986L148.5,26.985821030356682L150.8203125,26.818171587857357L153.140625,25.946643851020134L155.4609375,25.510832027955516L157.78125,25.879603255878816L160.1015625,25.007979609749558L162.421875,25.2426696473902L164.7421875,24.84033016725021L167.0625,23.76758473569698L169.38281249999997,22.393204580653816L171.703125,21.085769111459918L174.0234375,22.024433352730515L176.34375,21.28698680617595L178.66406250000003,21.085769111459918L180.984375,19.87903839891608L183.3046875,21.21994621103461L185.625,20.314754312688663L187.9453125,20.180673122406027L190.265625,20.583012602546013L192.5859375,20.314754312688663L194.90625,19.677820704200066L197.2265625,19.10792769085279L199.546875,18.906805905428815L201.8671875,18.839765310287497L204.18749999999997,18.20283170179888L206.5078125,18.10231876373293L208.828125,17.934669321233585L211.1484375,17.76701987873426L213.46875000000003,17.297735712744988L215.7890625,17.498857498168967L218.109375,16.861923889680348L220.4296875,17.029573332179694L222.75,16.996005079963005L225.0703125,16.861923889680348L227.390625,16.82845154675572L229.7109375,16.660802104256394L232.03125,16.526720913973737L234.3515625,17.063045675104327L236.671875,16.45968031883242L238.99218749999997,16.727842699397712L241.3125,16.392639723691097L243.6328125,16.45968031883242L245.953125,16.560289166190422L248.27343750000003,16.526720913973737L250.59375,16.493152661757048L252.9140625,16.35907147147441" style="fill: none;" fill="none"></path></g><g><path stroke="rgb(0, 119, 187)" stroke-width="2px" d="M30.1640625,186.65455542911184L32.484375,176.73187598315155L34.8046875,169.35683506185362L37.125,164.66360976479274L39.4453125,161.57955056970772L41.765625,159.29997851631862L44.0859375,155.67959456010303L46.40625,154.60684912854978L48.7265625,150.85228807275948L51.04687499999999,148.57271601937038L53.36718750000001,145.22049444372007L55.6875,143.47724715146154L58.0078125,142.00225814906037L60.328125,140.12502557581124L62.6484375,137.04096638072622L64.96875,138.7841177636927L67.2890625,134.62731313705447L69.609375,133.68864889578387L71.92968750000001,133.95681127634919L74.25,131.40907684239477L76.5703125,130.87275208126417L78.890625,131.0068332715468L81.2109375,128.7272612181577L83.53125,127.38635340603919L85.8515625,126.17952678420332L88.171875,126.31360797448595L90.4921875,125.3750396425074L92.8125,124.30229421095417L95.1328125,123.3636299696836L97.453125,121.62047858671711L99.7734375,121.62047858671711L102.09374999999999,118.93866296248005L104.4140625,116.92725328965624L106.73437500000001,117.32959276979622L109.0546875,115.72042666782035L111.375,115.72042666782035L113.6953125,114.24543766541917L116.015625,114.11135647513652L118.3359375,112.2341239018874L120.65625,111.16137847033417L122.9765625,109.686389467933L125.296875,109.686389467933L127.6171875,108.07731927524915L129.9375,107.94323808496651L132.2578125,105.93182841214268L134.578125,105.26142246072945L136.8984375,105.79774722186005L139.21875,103.25001278790562L141.5390625,103.51817516847093L143.85937500000003,102.1772673563524L146.1796875,102.84776921705769L148.5,101.64094259522182L150.8203125,100.70227835395121L153.140625,100.16595359282063L155.4609375,100.03187240253797L157.78125,98.8250457807021L160.1015625,99.0932081612674L162.421875,98.95912697098476L164.7421875,97.8863815394315L167.0625,98.8250457807021L169.38281249999997,97.21587967872624L171.703125,96.81363610787828L174.0234375,96.54547372731297L176.34375,96.94771729816092L178.66406250000003,95.47272829575975L180.984375,96.00914896618238L183.3046875,95.6068094860424L185.625,94.53406405448918L187.9453125,94.53406405448918L190.265625,94.53406405448918L192.5859375,93.32733334194532L194.90625,93.59549572251063L197.2265625,93.05907505208799L199.546875,92.92499386180533L201.8671875,92.52275029095738L204.18749999999997,89.97501585700297L206.5078125,90.10909704728563L208.828125,90.91368009827357L211.1484375,91.85224843025212L213.46875000000003,88.7681892351671L215.7890625,89.30451399629769L218.109375,88.90227042544974L220.4296875,87.15911904248328L222.75,87.56136261333121L225.0703125,87.42728142304857L227.390625,87.69544380361387L229.7109375,85.55004884979944L232.03125,85.81821123036475L234.3515625,85.4159676595168L236.671875,86.48861718177797L238.99218749999997,86.48861718177797L241.3125,85.6841300400821L243.6328125,84.20914103768091L245.953125,85.55004884979944L248.27343750000003,84.34322222796357L250.59375,84.07505984739826L252.9140625,83.13639560612769" style="fill: none;" fill="none"></path></g><g><path stroke="rgb(255, 112, 67)" stroke-width="2px" d="M39.4453125,177.0335107066415L41.765625,172.6420160423626L44.0859375,168.88755089586434L46.40625,165.20003043521538L48.7265625,161.64659116484907L51.04687499999999,158.0261112993414L53.36718750000001,155.64602630788633L55.6875,152.32727707516068L58.0078125,149.64546145092362L60.328125,148.33812189102176L62.6484375,145.8574280522087L64.96875,143.67846484617755L67.2890625,141.29828394543046L69.609375,140.29267501831058L71.92968750000001,138.14718415520412L74.25,136.9739257855849L76.5703125,135.2306784933264L78.890625,134.25854190913117L81.2109375,132.38130933588204L83.53125,130.93979267640552L85.8515625,129.3641948266463L88.171875,128.45909883759242L90.4921875,126.85002864490858L92.8125,126.24656737934461L95.1328125,124.67106543887748L97.453125,123.33015762675895L99.7734375,121.75455977699977L102.09374999999999,120.9165043830872L104.4140625,119.07274415276271L106.73437500000001,118.56989173455675L109.0546875,117.83244518800218L111.375,117.12847098437226L113.6953125,115.82103551517835L116.015625,114.37951885570182L118.3359375,113.50799111886461L120.65625,112.77044866301799L122.9765625,111.46310910311615L125.296875,110.89321608976887L127.6171875,109.31761824000968L129.9375,109.1164964545857L132.2578125,108.14435987039049L134.578125,107.27273622426121L136.8984375,106.26703138784931L139.21875,105.73070662671873L141.5390625,104.62448885224086L143.85937500000003,103.85337814417755L146.1796875,102.4454297369177L148.5,102.21083560856907L150.8203125,101.07104958187452L153.140625,100.93696839159188L155.4609375,98.99259931390938L157.78125,99.22728935155003L160.1015625,98.59035574306144L162.421875,97.31648852608424L164.7421875,96.2773113467477L167.0625,95.77445892854173L169.38281249999997,95.03691647269511L171.703125,94.56763230670585L174.0234375,93.89713044600056L176.34375,93.19315624237065L178.66406250000003,93.46141453222798L180.984375,92.08693846789276L183.3046875,91.6846948970448L185.625,90.44430002299225L187.9453125,90.84663950313224L190.265625,89.50573169101371L192.5859375,89.60624462907967L194.90625,89.06991986794908L197.2265625,88.29890506917783L199.546875,87.5949308655479L201.8671875,87.62840320847253L204.18749999999997,87.02503785220063L206.5078125,86.48861718177797L208.828125,86.42157658663666L211.1484375,86.05290126800539L213.46875000000003,85.2817905599421L215.7890625,84.34322222796357L218.109375,83.70628861947496L220.4296875,83.70628861947496L222.75,83.102827353911L225.0703125,82.49946199763907L227.390625,81.86252838915047L229.7109375,81.69487894665113L232.03125,81.2590671235865L234.3515625,80.6221335150979L236.671875,80.75631061467259L238.99218749999997,80.01876815882599L241.3125,79.51591574062003L243.6328125,78.77846919406547L245.953125,78.5437791564248L248.27343750000003,78.1750079285015L250.59375,77.83980495279488L252.9140625,77.20287134430627" style="fill: none;" fill="none"></path></g></g></g></g></g></g><g transform="translate(51, 177)" clip-path="url(#clip_1)"><clipPath id="clip_1"><rect width="278" height="23"></rect></clipPath><g><g><line x1="0" y1="0" x2="0" y2="5" style="visibility: inherit;" fill="rgb(0, 0, 0)" stroke="rgb(204, 204, 204)" stroke-width="1px"></line><line x1="23.203125" y1="0" x2="23.203125" y2="5" style="visibility: inherit;" fill="rgb(0, 0, 0)" stroke="rgb(204, 204, 204)" stroke-width="1px"></line><line x1="46.40625" y1="0" x2="46.40625" y2="5" style="visibility: inherit;" fill="rgb(0, 0, 0)" stroke="rgb(204, 204, 204)" stroke-width="1px"></line><line x1="69.609375" y1="0" x2="69.609375" y2="5" style="visibility: inherit;" fill="rgb(0, 0, 0)" stroke="rgb(204, 204, 204)" stroke-width="1px"></line><line x1="92.8125" y1="0" x2="92.8125" y2="5" style="visibility: inherit;" fill="rgb(0, 0, 0)" stroke="rgb(204, 204, 204)" stroke-width="1px"></line><line x1="116.015625" y1="0" x2="116.015625" y2="5" style="visibility: inherit;" fill="rgb(0, 0, 0)" stroke="rgb(204, 204, 204)" stroke-width="1px"></line><line x1="139.21875" y1="0" x2="139.21875" y2="5" style="visibility: inherit;" fill="rgb(0, 0, 0)" stroke="rgb(204, 204, 204)" stroke-width="1px"></line><line x1="162.421875" y1="0" x2="162.421875" y2="5" style="visibility: inherit;" fill="rgb(0, 0, 0)" stroke="rgb(204, 204, 204)" stroke-width="1px"></line><line x1="185.625" y1="0" x2="185.625" y2="5" style="visibility: inherit;" fill="rgb(0, 0, 0)" stroke="rgb(204, 204, 204)" stroke-width="1px"></line><line x1="208.828125" y1="0" x2="208.828125" y2="5" style="visibility: inherit;" fill="rgb(0, 0, 0)" stroke="rgb(204, 204, 204)" stroke-width="1px"></line><line x1="232.03125" y1="0" x2="232.03125" y2="5" style="visibility: inherit;" fill="rgb(0, 0, 0)" stroke="rgb(204, 204, 204)" stroke-width="1px"></line><line x1="255.234375" y1="0" x2="255.234375" y2="5" style="visibility: inherit;" fill="rgb(0, 0, 0)" stroke="rgb(204, 204, 204)" stroke-width="1px"></line><line x1="278.4375" y1="0" x2="278.4375" y2="5" style="visibility: inherit;" fill="rgb(0, 0, 0)" stroke="rgb(204, 204, 204)" stroke-width="1px"></line></g><g transform="translate(0, 8)"><text x="0" y="0" dx="0em" dy="0.95em" style="text-anchor: middle; visibility: hidden; font-family: Roboto, sans-serif; font-size: 12px; font-weight: 200;" fill="rgb(255, 255, 255)" stroke="none" stroke-width="1px">-10</text><text x="23.203125" y="0" dx="0em" dy="0.95em" style="text-anchor: middle; visibility: inherit; font-family: Roboto, sans-serif; font-size: 12px; font-weight: 200;" fill="rgb(255, 255, 255)" stroke="none" stroke-width="1px">0</text><text x="46.40625" y="0" dx="0em" dy="0.95em" style="text-anchor: middle; visibility: inherit; font-family: Roboto, sans-serif; font-size: 12px; font-weight: 200;" fill="rgb(255, 255, 255)" stroke="none" stroke-width="1px">10</text><text x="69.609375" y="0" dx="0em" dy="0.95em" style="text-anchor: middle; visibility: inherit; font-family: Roboto, sans-serif; font-size: 12px; font-weight: 200;" fill="rgb(255, 255, 255)" stroke="none" stroke-width="1px">20</text><text x="92.8125" y="0" dx="0em" dy="0.95em" style="text-anchor: middle; visibility: inherit; font-family: Roboto, sans-serif; font-size: 12px; font-weight: 200;" fill="rgb(255, 255, 255)" stroke="none" stroke-width="1px">30</text><text x="116.015625" y="0" dx="0em" dy="0.95em" style="text-anchor: middle; visibility: inherit; font-family: Roboto, sans-serif; font-size: 12px; font-weight: 200;" fill="rgb(255, 255, 255)" stroke="none" stroke-width="1px">40</text><text x="139.21875" y="0" dx="0em" dy="0.95em" style="text-anchor: middle; visibility: inherit; font-family: Roboto, sans-serif; font-size: 12px; font-weight: 200;" fill="rgb(255, 255, 255)" stroke="none" stroke-width="1px">50</text><text x="162.421875" y="0" dx="0em" dy="0.95em" style="text-anchor: middle; visibility: inherit; font-family: Roboto, sans-serif; font-size: 12px; font-weight: 200;" fill="rgb(255, 255, 255)" stroke="none" stroke-width="1px">60</text><text x="185.625" y="0" dx="0em" dy="0.95em" style="text-anchor: middle; visibility: inherit; font-family: Roboto, sans-serif; font-size: 12px; font-weight: 200;" fill="rgb(255, 255, 255)" stroke="none" stroke-width="1px">70</text><text x="208.828125" y="0" dx="0em" dy="0.95em" style="text-anchor: middle; visibility: inherit; font-family: Roboto, sans-serif; font-size: 12px; font-weight: 200;" fill="rgb(255, 255, 255)" stroke="none" stroke-width="1px">80</text><text x="232.03125" y="0" dx="0em" dy="0.95em" style="text-anchor: middle; visibility: inherit; font-family: Roboto, sans-serif; font-size: 12px; font-weight: 200;" fill="rgb(255, 255, 255)" stroke="none" stroke-width="1px">90</text><text x="255.234375" y="0" dx="0em" dy="0.95em" style="text-anchor: middle; visibility: inherit; font-family: Roboto, sans-serif; font-size: 12px; font-weight: 200;" fill="rgb(255, 255, 255)" stroke="none" stroke-width="1px">100</text><text x="278.4375" y="0" dx="0em" dy="0.95em" style="text-anchor: middle; visibility: hidden; font-family: Roboto, sans-serif; font-size: 12px; font-weight: 200;" fill="rgb(255, 255, 255)" stroke="none" stroke-width="1px">110</text></g><line x1="0" y1="0" x2="278.4375" y2="0" fill="rgb(0, 0, 0)" stroke="rgb(204, 204, 204)" stroke-width="1px"></line></g></g></g></g></svg>