<svg viewBox="0 0 330 200" xmlns="http://www.w3.org/2000/svg"><g><g><g><g><g><line x1="51.5625" y1="170.64560518393756" x2="46.5625" y2="170.64560518393756" style="visibility: inherit;" fill="rgb(0, 0, 0)" stroke="rgb(204, 204, 204)" stroke-width="1px"></line><line x1="51.5625" y1="163.30900656658454" x2="46.5625" y2="163.30900656658454" style="visibility: inherit;" fill="rgb(0, 0, 0)" stroke="rgb(204, 204, 204)" stroke-width="1px"></line><line x1="51.5625" y1="156.83766795803646" x2="46.5625" y2="156.83766795803646" style="visibility: inherit;" fill="rgb(0, 0, 0)" stroke="rgb(204, 204, 204)" stroke-width="1px"></line><line x1="51.5625" y1="151.04885831330836" x2="46.5625" y2="151.04885831330836" style="visibility: inherit;" fill="rgb(0, 0, 0)" stroke="rgb(204, 204, 204)" stroke-width="1px"></line><line x1="51.5625" y1="112.9653593954341" x2="46.5625" y2="112.9653593954341" style="visibility: inherit;" fill="rgb(0, 0, 0)" stroke="rgb(204, 204, 204)" stroke-width="1px"></line><line x1="51.5625" y1="90.68794063222293" x2="46.5625" y2="90.68794063222293" style="visibility: inherit;" fill="rgb(0, 0, 0)" stroke="rgb(204, 204, 204)" stroke-width="1px"></line><line x1="51.5625" y1="74.88186047755987" x2="46.5625" y2="74.88186047755987" style="visibility: inherit;" fill="rgb(0, 0, 0)" stroke="rgb(204, 204, 204)" stroke-width="1px"></line><line x1="51.5625" y1="62.621712224283684" x2="46.5625" y2="62.621712224283684" style="visibility: inherit;" fill="rgb(0, 0, 0)" stroke="rgb(204, 204, 204)" stroke-width="1px"></line><line x1="51.5625" y1="52.604441714348674" x2="46.5625" y2="52.604441714348674" style="visibility: inherit;" fill="rgb(0, 0, 0)" stroke="rgb(204, 204, 204)" stroke-width="1px"></line><line x1="51.5625" y1="44.134960177038636" x2="46.5625" y2="44.134960177038636" style="visibility: inherit;" fill="rgb(0, 0, 0)" stroke="rgb(204, 204, 204)" stroke-width="1px"></line><line x1="51.5625" y1="36.7983615596856" x2="46.5625" y2="36.7983615596856" style="visibility: inherit;" fill="rgb(0, 0, 0)" stroke="rgb(204, 204, 204)" stroke-width="1px"></line><line x1="51.5625" y1="30.32702295113752" x2="46.5625" y2="30.32702295113752" style="visibility: inherit;" fill="rgb(0, 0, 0)" stroke="rgb(204, 204, 204)" stroke-width="1px"></line><line x1="51.5625" y1="24.53821330640942" x2="46.5625" y2="24.53821330640942" style="visibility: inherit;" fill="rgb(0, 0, 0)" stroke="rgb(204, 204, 204)" stroke-width="1px"></line></g><g transform="translate(41.5625, 0)"><text x="0" y="170.64560518393756" dx="0em" dy="0.3em" style="text-anchor: end; visibility: inherit; font-family: Roboto, sans-serif; font-size: 12px; font-weight: 200;" fill="rgb(255, 255, 255)" stroke="none" stroke-width="1px">0.07</text><text x="0" y="163.30900656658454" dx="0em" dy="0.3em" style="text-anchor: end; visibility: hidden; font-family: Roboto, sans-serif; font-size: 12px; font-weight: 200;" fill="rgb(255, 255, 255)" stroke="none" stroke-width="1px">0.08</text><text x="0" y="156.83766795803646" dx="0em" dy="0.3em" style="text-anchor: end; visibility: hidden; font-family: Roboto, sans-serif; font-size: 12px; font-weight: 200;" fill="rgb(255, 255, 255)" stroke="none" stroke-width="1px">0.09</text><text x="0" y="151.04885831330836" dx="0em" dy="0.3em" style="text-anchor: end; visibility: hidden; font-family: Roboto, sans-serif; font-size: 12px; font-weight: 200;" fill="rgb(255, 255, 255)" stroke="none" stroke-width="1px">0.1</text><text x="0" y="112.9653593954341" dx="0em" dy="0.3em" style="text-anchor: end; visibility: inherit; font-family: Roboto, sans-serif; font-size: 12px; font-weight: 200;" fill="rgb(255, 255, 255)" stroke="none" stroke-width="1px">0.2</text><text x="0" y="90.68794063222293" dx="0em" dy="0.3em" style="text-anchor: end; visibility: hidden; font-family: Roboto, sans-serif; font-size: 12px; font-weight: 200;" fill="rgb(255, 255, 255)" stroke="none" stroke-width="1px">0.3</text><text x="0" y="74.88186047755987" dx="0em" dy="0.3em" style="text-anchor: end; visibility: hidden; font-family: Roboto, sans-serif; font-size: 12px; font-weight: 200;" fill="rgb(255, 255, 255)" stroke="none" stroke-width="1px">0.4</text><text x="0" y="62.621712224283684" dx="0em" dy="0.3em" style="text-anchor: end; visibility: hidden; font-family: Roboto, sans-serif; font-size: 12px; font-weight: 200;" fill="rgb(255, 255, 255)" stroke="none" stroke-width="1px">0.5</text><text x="0" y="52.604441714348674" dx="0em" dy="0.3em" style="text-anchor: end; visibility: inherit; font-family: Roboto, sans-serif; font-size: 12px; font-weight: 200;" fill="rgb(255, 255, 255)" stroke="none" stroke-width="1px">0.6</text><text x="0" y="44.134960177038636" dx="0em" dy="0.3em" style="text-anchor: end; visibility: hidden; font-family: Roboto, sans-serif; font-size: 12px; font-weight: 200;" fill="rgb(255, 255, 255)" stroke="none" stroke-width="1px">0.7</text><text x="0" y="36.7983615596856" dx="0em" dy="0.3em" style="text-anchor: end; visibility: hidden; font-family: Roboto, sans-serif; font-size: 12px; font-weight: 200;" fill="rgb(255, 255, 255)" stroke="none" stroke-width="1px">0.8</text><text x="0" y="30.32702295113752" dx="0em" dy="0.3em" style="text-anchor: end; visibility: hidden; font-family: Roboto, sans-serif; font-size: 12px; font-weight: 200;" fill="rgb(255, 255, 255)" stroke="none" stroke-width="1px">0.9</text><text x="0" y="24.53821330640942" dx="0em" dy="0.3em" style="text-anchor: end; visibility: inherit; font-family: Roboto, sans-serif; font-size: 12px; font-weight: 200;" fill="rgb(255, 255, 255)" stroke="none" stroke-width="1px">1</text></g><line x1="51.5625" y1="0" x2="51.5625" y2="176.921875" fill="rgb(0, 0, 0)" stroke="rgb(204, 204, 204)" stroke-width="1px"></line></g></g><g transform="translate(51, 0)" clip-path="url(#clip_0)"><clipPath id="clip_0"><rect width="278" height="176"></rect></clipPath><g><g><g><line x1="0" y1="0" x2="0" y2="176.921875" fill="rgb(0, 0, 0)" stroke="rgb(189, 189, 189)" stroke-width="1px" opacity="0.25"></line><line x1="23.203125" y1="0" x2="23.203125" y2="176.921875" fill="rgb(0, 0, 0)" stroke="rgb(189, 189, 189)" stroke-width="1px" opacity="0.25"></line><line x1="46.40625" y1="0" x2="46.40625" y2="176.921875" fill="rgb(0, 0, 0)" stroke="rgb(189, 189, 189)" stroke-width="1px" opacity="0.25"></line><line x1="69.609375" y1="0" x2="69.609375" y2="176.921875" fill="rgb(0, 0, 0)" stroke="rgb(189, 189, 189)" stroke-width="1px" opacity="0.25"></line><line x1="92.8125" y1="0" x2="92.8125" y2="176.921875" fill="rgb(0, 0, 0)" stroke="rgb(189, 189, 189)" stroke-width="1px" opacity="0.25"></line><line x1="116.015625" y1="0" x2="116.015625" y2="176.921875" fill="rgb(0, 0, 0)" stroke="rgb(189, 189, 189)" stroke-width="1px" opacity="0.25"></line><line x1="139.21875" y1="0" x2="139.21875" y2="176.921875" fill="rgb(0, 0, 0)" stroke="rgb(189, 189, 189)" stroke-width="1px" opacity="0.25"></line><line x1="162.421875" y1="0" x2="162.421875" y2="176.921875" fill="rgb(0, 0, 0)" stroke="rgb(189, 189, 189)" stroke-width="1px" opacity="0.25"></line><line x1="185.625" y1="0" x2="185.625" y2="176.921875" fill="rgb(0, 0, 0)" stroke="rgb(189, 189, 189)" stroke-width="1px" opacity="0.25"></line><line x1="208.828125" y1="0" x2="208.828125" y2="176.921875" fill="rgb(0, 0, 0)" stroke="rgb(189, 189, 189)" stroke-width="1px" opacity="0.25"></line><line x1="232.03125" y1="0" x2="232.03125" y2="176.921875" fill="rgb(0, 0, 0)" stroke="rgb(189, 189, 189)" stroke-width="1px" opacity="0.25"></line><line x1="255.234375" y1="0" x2="255.234375" y2="176.921875" fill="rgb(0, 0, 0)" stroke="rgb(189, 189, 189)" stroke-width="1px" opacity="0.25"></line><line x1="278.4375" y1="0" x2="278.4375" y2="176.921875" fill="rgb(0, 0, 0)" stroke="rgb(189, 189, 189)" stroke-width="1px" opacity="0.25"></line></g><g><line x1="0" y1="170.64560518393756" x2="278.4375" y2="170.64560518393756" fill="rgb(0, 0, 0)" stroke="rgb(189, 189, 189)" stroke-width="1px" opacity="0.25"></line><line x1="0" y1="163.30900656658454" x2="278.4375" y2="163.30900656658454" fill="rgb(0, 0, 0)" stroke="rgb(189, 189, 189)" stroke-width="1px" opacity="0.25"></line><line x1="0" y1="156.83766795803646" x2="278.4375" y2="156.83766795803646" fill="rgb(0, 0, 0)" stroke="rgb(189, 189, 189)" stroke-width="1px" opacity="0.25"></line><line x1="0" y1="151.04885831330836" x2="278.4375" y2="151.04885831330836" fill="rgb(0, 0, 0)" stroke="rgb(189, 189, 189)" stroke-width="1px" opacity="0.25"></line><line x1="0" y1="112.9653593954341" x2="278.4375" y2="112.9653593954341" fill="rgb(0, 0, 0)" stroke="rgb(189, 189, 189)" stroke-width="1px" opacity="0.25"></line><line x1="0" y1="90.68794063222293" x2="278.4375" y2="90.68794063222293" fill="rgb(0, 0, 0)" stroke="rgb(189, 189, 189)" stroke-width="1px" opacity="0.25"></line><line x1="0" y1="74.88186047755987" x2="278.4375" y2="74.88186047755987" fill="rgb(0, 0, 0)" stroke="rgb(189, 189, 189)" stroke-width="1px" opacity="0.25"></line><line x1="0" y1="62.621712224283684" x2="278.4375" y2="62.621712224283684" fill="rgb(0, 0, 0)" stroke="rgb(189, 189, 189)" stroke-width="1px" opacity="0.25"></line><line x1="0" y1="52.604441714348674" x2="278.4375" y2="52.604441714348674" fill="rgb(0, 0, 0)" stroke="rgb(189, 189, 189)" stroke-width="1px" opacity="0.25"></line><line x1="0" y1="44.134960177038636" x2="278.4375" y2="44.134960177038636" fill="rgb(0, 0, 0)" stroke="rgb(189, 189, 189)" stroke-width="1px" opacity="0.25"></line><line x1="0" y1="36.7983615596856" x2="278.4375" y2="36.7983615596856" fill="rgb(0, 0, 0)" stroke="rgb(189, 189, 189)" stroke-width="1px" opacity="0.25"></line><line x1="0" y1="30.32702295113752" x2="278.4375" y2="30.32702295113752" fill="rgb(0, 0, 0)" stroke="rgb(189, 189, 189)" stroke-width="1px" opacity="0.25"></line><line x1="0" y1="24.53821330640942" x2="278.4375" y2="24.53821330640942" fill="rgb(0, 0, 0)" stroke="rgb(189, 189, 189)" stroke-width="1px" opacity="0.25"></line></g></g></g><g><g><line x1="23.203125" y1="0" x2="23.203125" y2="176.921875" fill="rgb(0, 0, 0)" stroke="rgb(153, 153, 153)" stroke-width="1.5px"></line></g></g><g><g><g><g><g><path stroke="rgb(51, 187, 238)" stroke-width="2px" d="M23.203125,28.712856624078025L25.523437499999996,28.72932697974718L27.84375,28.054850778876087L30.1640625,27.956014437548802L32.484375,27.813526230095402L34.8046875,27.59561848855195L37.125,27.195745415608155L39.4453125,27.21115082188182L41.765625,27.139389034164548L44.0859375,27.07004279532593L46.40625,27.29974938122949L48.7265625,27.18852997863343L51.04687499999999,27.14742921971254L53.36718750000001,27.131693738334416L55.6875,26.94414668566703L58.0078125,26.96295541650958L60.328125,26.929304415970474L62.6484375,26.91487710486921L64.96875,26.886157369198802L67.2890625,27.096793932670494L69.609375,27.05362983306413L71.92968750000001,27.03924723253515L74.25,27.060811594054616L76.5703125,27.002118635437157L78.890625,27.171776247862102L81.2109375,26.964121703980815L83.53125,27.02322124160857L85.8515625,27.040814564372557L88.171875,27.052009573854626L90.4921875,27.031250695981264L92.8125,27.33794031178155L95.1328125,27.135560249939914L97.453125,27.07778898616109L99.7734375,27.161669469160767L102.09374999999999,27.177230404180083L104.4140625,27.144188640224563L106.73437500000001,27.25500948382873L109.0546875,27.24312754148858L111.375,27.150692907558632L113.6953125,27.174141862142978L116.015625,27.097056132497485L118.3359375,27.36137723528896L120.65625,27.310719583667836L122.9765625,27.162805634908704L125.296875,27.04345305070939L127.6171875,27.089287722129104L129.9375,27.109820542035933L132.2578125,27.348510709981184L134.578125,27.160032149372817L136.8984375,27.152397844975617L139.21875,27.102987023610673L141.5390625,27.107076727141706L143.85937500000003,27.089933091982854L146.1796875,27.215801717407274L148.5,27.23314207922503L150.8203125,27.18893557045132L153.140625,27.202878693873533L155.4609375,27.260345025223604L157.78125,27.14968174328002L160.1015625,27.17843946755707L162.421875,27.01771169970003L164.7421875,27.030870561691938L167.0625,27.003920559887938L169.38281249999997,26.940204388420266L171.703125,27.34512169399701L174.0234375,27.19437088772754L176.34375,27.162356641313973L178.66406250000003,27.079181080975307L180.984375,27.040036184582796L183.3046875,27.09237543961957L185.625,27.14736334081466L187.9453125,27.136461505909047L190.265625,27.01354144772877L192.5859375,27.040764289136604L194.90625,27.02562988992424L197.2265625,27.075573141883982L199.546875,27.098163449144206L201.8671875,27.717353395955698L204.18749999999997,27.415836215000812L206.5078125,27.22481201023135L208.828125,27.0983597951744L211.1484375,27.121557299002518L213.46875000000003,27.068397368135816L215.7890625,27.09697216644771L218.109375,27.13766080037297L220.4296875,27.042884617735748L222.75,27.105792857426184L225.0703125,27.082098082781766L227.390625,27.046287207738295L229.7109375,27.227571196794134L232.03125,27.121327485433625L234.3515625,27.161851951833384L236.671875,27.266263858878844L238.99218749999997,27.219900478452228L241.3125,27.15350008992738L243.6328125,27.11313262873382L245.953125,27.06658581608591L248.27343750000003,27.117655754993322L250.59375,27.20084863229943L252.9140625,27.153588611326406" style="fill: none;" fill="none"></path></g><g><path stroke="rgb(204, 51, 17)" stroke-width="2px" d="M23.203125,30.99882414258674L25.523437499999996,29.012129765061374L27.84375,28.1234050401352L30.1640625,27.630285223515205L32.484375,27.281568839172728L34.8046875,27.016447813439953L37.125,26.85859256247814L39.4453125,26.670147627356435L41.765625,26.59398067307692L44.0859375,26.48062199331915L46.40625,26.419964566902788L48.7265625,26.323409786940438L51.04687499999999,26.281122949329188L53.36718750000001,26.221621752538493L55.6875,26.142373379690444L58.0078125,26.10279382813481L60.328125,26.053003770237883L62.6484375,26.06753949780126L64.96875,26.04538934588778L67.2890625,26.02020390547778L69.609375,26.017021009489582L71.92968750000001,25.998971581915576L74.25,25.9341509590043L76.5703125,25.907636227392526L78.890625,25.88441183684633L81.2109375,25.839975779744428L83.53125,25.82948775666202L85.8515625,25.820729608355848L88.171875,25.756632082156194L90.4921875,25.701809129171902L92.8125,25.64929915598242L95.1328125,25.662188451934064L97.453125,25.69200793490119L99.7734375,25.706338330713578L102.09374999999999,25.64922561662343L104.4140625,25.662734948612737L106.73437500000001,25.63211235866071L109.0546875,25.610388789133417L111.375,25.598945950706984L113.6953125,25.60197758514208L116.015625,25.601742205467954L118.3359375,25.578873280216083L120.65625,25.586106473320246L122.9765625,25.59089011547652L125.296875,25.597949297623163L127.6171875,25.564146952116957L129.9375,25.560664121036915L132.2578125,25.546096372731814L134.578125,25.538813946777378L136.8984375,25.517691434849954L139.21875,25.43262365430988L141.5390625,25.4471318209226L143.85937500000003,25.42820711526777L146.1796875,25.39955771768709L148.5,25.45153708965101L150.8203125,25.412960582730186L153.140625,25.422174119758246L155.4609375,25.408171415675405L157.78125,25.418033668711878L160.1015625,25.385755903017092L162.421875,25.407404991508734L164.7421875,25.43102766825076L167.0625,25.36551460336854L169.38281249999997,25.300280775312956L171.703125,25.323978964753884L174.0234375,25.389862930486544L176.34375,25.4228345634885L178.66406250000003,25.41896805800481L180.984375,25.36297881818477L183.3046875,25.300174904206692L185.625,25.286202483283326L187.9453125,25.236307298418783L190.265625,25.26702432165791L192.5859375,25.238897693760915L194.90625,25.277601641443727L197.2265625,25.30392714195878L199.546875,25.28923839373069L201.8671875,25.261593991247484L204.18749999999997,25.313909710213995L206.5078125,25.263483145899468L208.828125,25.223217531021344L211.1484375,25.21700114249036L213.46875000000003,25.202885619087024L215.7890625,25.210891383545587L218.109375,25.314643805610828L220.4296875,25.32361500556702L222.75,25.337972510538144L225.0703125,25.307994096435202L227.390625,25.294171425895996L229.7109375,25.255941342030294L232.03125,25.23799548988092L234.3515625,25.263229632010322L236.671875,25.254972814319917L238.99218749999997,25.27926251497199L241.3125,25.26762669684871L243.6328125,25.228766407260277L245.953125,25.201815176964963L248.27343750000003,25.205720027011875L250.59375,25.218681108163405L252.9140625,25.184612487180527" style="fill: none;" fill="none"></path></g><g><path stroke="rgb(0, 119, 187)" stroke-width="2px" d="M23.203125,151.23230943738173L25.523437499999996,151.2935937163373L27.84375,149.29795374419302L30.1640625,147.9396228954393L32.484375,147.8920034255614L34.8046875,149.6085733998122L37.125,148.163930945709L39.4453125,148.6610367593559L41.765625,150.13681393142164L44.0859375,148.97906312269754L46.40625,148.41004038275926L48.7265625,150.00523659337804L51.04687499999999,151.73992192694547L53.36718750000001,149.2028255158847L55.6875,149.1807798760703L58.0078125,150.24208477404997L60.328125,149.0316865329298L62.6484375,148.43634897636818L64.96875,150.4016671281696L67.2890625,149.10968914054695L69.609375,148.47491807852643L71.92968750000001,148.16026189241393L74.25,149.71948934914803L76.5703125,149.43840150484928L78.890625,150.3280343421562L81.2109375,153.0811652241918L83.53125,151.08495910038752L85.8515625,149.44233475508688L88.171875,148.63907896151707L90.4921875,151.0304795585906L92.8125,151.3380348403208L95.1328125,151.33114774305858L97.453125,153.60621078780738L99.7734375,152.40644004866925L102.09374999999999,149.520189332887L104.4140625,152.65500640536672L106.73437500000001,150.1986343885937L109.0546875,151.3078364011631L111.375,150.222783358431L113.6953125,148.4734096246639L116.015625,148.15951204220013L118.3359375,148.00323320504646L120.65625,149.63865868451754L122.9765625,150.38445137595366L125.296875,149.76817997145264L127.6171875,152.78614266672867L129.9375,153.15717088650746L132.2578125,150.43816600724753L134.578125,151.962687986826L136.8984375,152.20077264424324L139.21875,150.65870768333508L141.5390625,148.68410934653392L143.85937500000003,151.0539917629777L146.1796875,151.14307825872723L148.5,151.1417925636893L150.8203125,148.91659488161542L153.140625,150.06225281375728L155.4609375,150.6896337822381L157.78125,149.91885732307318L160.1015625,148.87336576434228L162.421875,150.08514855276582L164.7421875,150.86068308358546L167.0625,149.33338537510062L169.38281249999997,150.3198064153707L171.703125,150.97955463677266L174.0234375,149.3911595898524L176.34375,151.42196397275305L178.66406250000003,151.2810552076492L180.984375,153.58009993901683L183.3046875,150.07386324914208L185.625,148.40123261559523L187.9453125,150.00030767117175L190.265625,149.5779147787141L192.5859375,150.60287573311055L194.90625,149.20786450312153L197.2265625,148.52342027502763L199.546875,148.84016404413484L201.8671875,148.3415385698607L204.18749999999997,149.7679142764566L206.5078125,148.79926497089784L208.828125,150.00232044037134L211.1484375,148.36652215948374L213.46875000000003,150.36546736323243L215.7890625,149.09200814802608L218.109375,148.46617872110812L220.4296875,148.81137033858394L222.75,150.00850678509184L225.0703125,151.21075171661602L227.390625,151.17561808162088L229.7109375,149.48631041368873L232.03125,148.66074327352328L234.3515625,149.97636373176357L236.671875,149.56603319063746L238.99218749999997,150.39285482135128L241.3125,149.77233466785904L243.6328125,150.5428187681835L245.953125,150.840850104467L248.27343750000003,150.9904742119578L250.59375,149.3964635240499L252.9140625,150.51036685298408" style="fill: none;" fill="none"></path></g><g><path stroke="rgb(255, 112, 67)" stroke-width="2px" d="M23.203125,149.16980804535405L25.523437499999996,149.22883320452058L27.84375,149.31537888592484L30.1640625,149.90924752458542L32.484375,149.48614777923513L34.8046875,149.94855630144528L37.125,149.71213943334584L39.4453125,149.9887968015077L41.765625,149.79513639013217L44.0859375,149.93411852921147L46.40625,149.81295482486078L48.7265625,149.91489993874586L51.04687499999999,149.3242836941176L53.36718750000001,149.26914534188586L55.6875,148.9048048295539L58.0078125,149.73679311694949L60.328125,149.6251778246225L62.6484375,149.7592036552779L64.96875,149.7089200215134L67.2890625,150.17165763300568L69.609375,149.59036725733912L71.92968750000001,149.90406374359515L74.25,150.42819029083049L76.5703125,149.61667448890987L78.890625,149.40944811664534L81.2109375,149.98675904774421L83.53125,150.06367111388823L85.8515625,149.49795355100827L88.171875,149.2283376508179L90.4921875,150.15920681674353L92.8125,149.81316227656836L95.1328125,149.096970084127L97.453125,149.67213971218925L99.7734375,150.05747128904616L102.09374999999999,149.67879256206203L104.4140625,149.34042602022262L106.73437500000001,149.8565828252593L109.0546875,149.28995608008833L111.375,149.24646104251713L113.6953125,149.47998865677434L116.015625,149.94380445634457L118.3359375,150.18282196891664L120.65625,149.94816857284104L122.9765625,149.39076272070184L125.296875,149.75885708911912L127.6171875,149.80937536835978L129.9375,150.25048272129362L132.2578125,150.3309668480383L134.578125,149.50194237980793L136.8984375,149.94365446387448L139.21875,149.55536885473657L141.5390625,149.30677435661332L143.85937500000003,149.92924826312668L146.1796875,150.6677787648905L148.5,149.84645427717717L150.8203125,149.89801593677709L153.140625,149.58283375453078L155.4609375,149.62074506694478L157.78125,149.11783715387728L160.1015625,149.38759436280708L162.421875,149.70697271295197L164.7421875,149.43217478284495L167.0625,149.85245013619527L169.38281249999997,149.42665310735663L171.703125,149.7210260303316L174.0234375,149.85200302921402L176.34375,149.85037183641043L178.66406250000003,150.23729657809776L180.984375,149.94722788394205L183.3046875,150.78500350454962L185.625,150.20204847891995L187.9453125,150.21644071328916L190.265625,149.8751949281801L192.5859375,149.93482502977162L194.90625,149.55098504949794L197.2265625,149.62711133378934L199.546875,149.4313164372457L201.8671875,149.79604730469669L204.18749999999997,149.48759763396217L206.5078125,148.8755081994093L208.828125,148.93978174408966L211.1484375,149.62053690167562L213.46875000000003,149.80161557135528L215.7890625,149.79160082309193L218.109375,150.28101457148375L220.4296875,149.87365001673766L222.75,150.03509398098868L225.0703125,149.99795748045528L227.390625,149.53775998885885L229.7109375,149.33682980807313L232.03125,149.72611578994037L234.3515625,150.19723087608403L236.671875,150.57598329405525L238.99218749999997,149.91883274915105L241.3125,149.67684884356015L243.6328125,149.26184609223696L245.953125,149.53780255351143L248.27343750000003,149.50353238626766L250.59375,148.86688233731107L252.9140625,149.20598391874645" style="fill: none;" fill="none"></path></g></g></g></g><g opacity="0.20000000298023224"><g><g><g><path stroke="rgb(51, 187, 238)" stroke-width="2px" d="M23.203125,28.712856624078025L25.523437499999996,28.737564009460932L27.84375,27.55437228510165L30.1640625,27.869678247077157L32.484375,27.680278309547255L34.8046875,27.38534132670346L37.125,26.80494245973271L39.4453125,27.226440143637035L41.765625,27.068000625478582L44.0859375,27.00091915771891L46.40625,27.53019462602064L48.7265625,27.07758940173522L51.04687499999999,27.1063692069061L53.36718750000001,27.115964682272924L55.6875,26.7572490347298L58.0078125,26.98177001410493L60.328125,26.895674526131415L62.6484375,26.900453691233032L64.96875,26.85745274753499L67.2890625,27.308240726120726L69.609375,27.010499658439976L71.92968750000001,27.024868402863095L74.25,27.08238441748352L76.5703125,26.943488315905455L78.890625,27.34195935748001L81.2109375,26.7572490347298L83.53125,27.08238441748352L85.8515625,27.058413522388612L88.171875,27.063206864824245L90.4921875,27.010499658439976L92.8125,27.646351474409602L95.1328125,26.93392291275342L97.453125,27.02007840385039L99.7734375,27.245678207085984L102.09374999999999,27.192795747619076L104.4140625,27.111166735114786L106.73437500000001,27.366054307067653L109.0546875,27.231248168180976L111.375,27.058413522388612L113.6953125,27.197600828730618L116.015625,27.02007840385039L118.3359375,27.626976092819948L120.65625,27.260108595676478L122.9765625,27.015288822400258L125.296875,26.92435917462185L127.6171875,27.135160661863676L129.9375,27.13036103817582L132.2578125,27.588242353762414L134.578125,26.972197944473084L136.8984375,27.1447646012165L139.21875,27.053620598098664L141.5390625,27.111166735114786L143.85937500000003,27.07279480442455L146.1796875,27.34195935748001L148.5,27.250487915512018L150.8203125,27.1447646012165L153.140625,27.216825356608897L155.4609375,27.317871525198075L157.78125,27.03924090600519L160.1015625,27.20721225183628L162.421875,26.85745274753499L164.7421875,27.044032575996663L167.0625,26.976983770834952L169.38281249999997,26.876562021761675L171.703125,27.753045323689324L174.0234375,27.044032575996663L176.34375,27.13036103817582L178.66406250000003,26.99613124608995L180.984375,27.00091915771891L183.3046875,27.1447646012165L185.625,27.202406330111863L187.9453125,27.125561833730245L190.265625,26.890895776705786L192.5859375,27.068000625478582L194.90625,27.010499658439976L197.2265625,27.125561833730245L199.546875,27.12076304845368L201.8671875,28.34360104403527L204.18749999999997,27.115964682272924L206.5078125,27.03444965386766L208.828125,26.972197944473084L211.1484375,27.1447646012165L213.46875000000003,27.015288822400258L215.7890625,27.125561833730245L218.109375,27.178379589108392L220.4296875,26.94827164204533L222.75,27.168773208075997L225.0703125,27.058413522388612L227.390625,27.010499658439976L229.7109375,27.409455312947756L232.03125,27.015288822400258L234.3515625,27.202406330111863L236.671875,27.37087456525249L238.99218749999997,27.173576188641036L241.3125,27.087179851742604L243.6328125,27.07279480442455L245.953125,27.02007840385039L248.27343750000003,27.168773208075997L250.59375,27.284167668852028L252.9140625,27.1063692069061" style="fill: none;" fill="none"></path></g><g><path stroke="rgb(204, 51, 17)" stroke-width="2px" d="M23.203125,30.99882414258674L25.523437499999996,28.045087943130056L27.84375,27.466170055594528L30.1640625,27.202406330111863L32.484375,26.956645176080862L34.8046875,26.760826055147092L37.125,26.70364550071479L39.4453125,26.48381152712655L41.765625,26.51821607291113L44.0859375,26.367717435777834L46.40625,26.359433170846426L48.7265625,26.227071413452144L51.04687499999999,26.238878944826098L53.36718750000001,26.162192175294074L55.6875,26.06324397479955L58.0078125,26.06324397479955L60.328125,26.00325955069449L62.6484375,26.082078961022276L64.96875,26.0232482046272L67.2890625,25.995030052617395L69.609375,26.013838300914212L71.92968750000001,25.980928090461457L74.25,25.869406735625905L76.5703125,25.881134288439192L78.890625,25.861197260501463L81.2109375,25.7955756334003L83.53125,25.8190017354082L85.8515625,25.811972855981715L88.171875,25.69260924660483L90.4921875,25.647040825057328L92.8125,25.59683931973039L95.1328125,25.675080772347105L97.453125,25.72184361076083L99.7734375,25.72067246520419L102.09374999999999,25.59217220913897L104.4140625,25.67624760308771L106.73437500000001,25.60150682680217L109.0546875,25.58867380537772L111.375,25.58750549496056L113.6953125,25.60500938686571L116.015625,25.60150682680217L118.3359375,25.556013869758594L120.65625,25.593340618794834L122.9765625,25.59567417416039L125.296875,25.60500938686571L127.6171875,25.53036538994386L129.9375,25.557181510719687L132.2578125,25.53153248594719L134.578125,25.53153248594719L136.8984375,25.49657704024544L139.21875,25.34768738020736L141.5390625,25.46164381956082L143.85937500000003,25.40928892585676L146.1796875,25.370923251255007L148.5,25.503565683899954L150.8203125,25.37441114215458L153.140625,25.431389202091374L155.4609375,25.394172279403037L157.78125,25.427897692341794L160.1015625,25.353497088687327L162.421875,25.429062613732697L164.7421875,25.454660505926157L167.0625,25.300079562262813L169.38281249999997,25.235124307721303L171.703125,25.34768738020736L174.0234375,25.455825994897452L176.34375,25.455825994897452L178.66406250000003,25.415101824600324L180.984375,25.307046575818887L183.3046875,25.23744269795253L185.625,25.272233614757063L187.9453125,25.186457383680406L190.265625,25.297758527531574L192.5859375,25.210785457219135L194.90625,25.316332872948497L197.2265625,25.33026526220317L199.546875,25.27455357142858L201.8671875,25.233963490997933L204.18749999999997,25.366275290845078L206.5078125,25.213102820644856L208.828125,25.18298140372423L211.1484375,25.210785457219135L213.46875000000003,25.188773721209742L215.7890625,25.21889831469965L218.109375,25.41859252126697L220.4296875,25.33258767060075L222.75,25.35233376834951L225.0703125,25.278032030498277L227.390625,25.280352232025333L229.7109375,25.21773784073999L232.03125,25.22005549742592L234.3515625,25.288475368992145L236.671875,25.24671723727796L238.99218749999997,25.30356295860961L241.3125,25.255993342440643L243.6328125,25.189933583559572L245.953125,25.17487716062497L248.27343750000003,25.209625154600463L250.59375,25.2316452475689L252.9140625,25.15056497815649" style="fill: none;" fill="none"></path></g><g><path stroke="rgb(0, 119, 187)" stroke-width="2px" d="M23.203125,151.23230943738173L25.523437499999996,151.32426150899002L27.84375,147.84739762499575L30.1640625,146.77802124804523L32.484375,147.84739762499575L34.8046875,151.32426150899002L37.125,146.77802124804523L39.4453125,149.15874442319497L41.765625,151.64732142857144L44.0859375,147.84739762499575L46.40625,147.84739762499575L48.7265625,151.64732142857144L51.04687499999999,153.5307216976627L53.36718750000001,146.77802124804523L55.6875,149.15874442319497L58.0078125,151.32426150899002L60.328125,147.84739762499575L62.6484375,147.84739762499575L64.96875,152.43989348867788L67.2890625,147.84739762499575L69.609375,147.84739762499575L71.92968750000001,147.84739762499575L74.25,151.32426150899002L76.5703125,149.15874442319497L78.890625,151.23230943738173L81.2109375,155.97956378456038L83.53125,149.15874442319497L85.8515625,147.84739762499575L88.171875,147.84739762499575L90.4921875,153.5307216976627L92.8125,151.64732142857144L95.1328125,151.32426150899002L97.453125,155.97956378456038L99.7734375,151.23230943738173L102.09374999999999,146.77802124804523L104.4140625,155.97956378456038L106.73437500000001,147.84739762499575L109.0546875,152.43989348867788L111.375,149.15874442319497L113.6953125,146.77802124804523L116.015625,147.84739762499575L118.3359375,147.84739762499575L120.65625,151.32426150899002L122.9765625,151.14050689873667L125.296875,149.15874442319497L127.6171875,155.97956378456038L129.9375,153.5307216976627L132.2578125,147.84739762499575L134.578125,153.5307216976627L136.8984375,152.43989348867788L139.21875,149.15874442319497L141.5390625,146.77802124804523L143.85937500000003,153.5307216976627L146.1796875,151.23230943738173L148.5,151.14050689873667L150.8203125,146.77802124804523L153.140625,151.23230943738173L155.4609375,151.32426150899002L157.78125,149.15874442319497L160.1015625,147.84739762499575L162.421875,151.32426150899002L164.7421875,151.64732142857144L167.0625,147.84739762499575L169.38281249999997,151.32426150899002L171.703125,151.64732142857144L174.0234375,147.84739762499575L176.34375,153.5307216976627L178.66406250000003,151.14050689873667L180.984375,155.97956378456038L183.3046875,146.77802124804523L185.625,146.77802124804523L187.9453125,151.64732142857144L190.265625,149.15874442319497L192.5859375,151.64732142857144L194.90625,147.84739762499575L197.2265625,147.84739762499575L199.546875,149.15874442319497L201.8671875,147.84739762499575L204.18749999999997,151.23230943738173L206.5078125,147.84739762499575L208.828125,151.23230943738173L211.1484375,146.77802124804523L213.46875000000003,152.43989348867788L215.7890625,147.84739762499575L218.109375,147.84739762499575L220.4296875,149.15874442319497L222.75,151.23230943738173L225.0703125,152.43989348867788L227.390625,151.14050689873667L229.7109375,147.84739762499575L232.03125,147.84739762499575L234.3515625,151.32426150899002L236.671875,149.15874442319497L238.99218749999997,151.23230943738173L241.3125,149.15874442319497L243.6328125,151.32426150899002L245.953125,151.14050689873667L248.27343750000003,151.14050689873667L250.59375,147.84739762499575L252.9140625,151.64732142857144" style="fill: none;" fill="none"></path></g><g><path stroke="rgb(255, 112, 67)" stroke-width="2px" d="M23.203125,149.16980804535405L25.523437499999996,149.25836958018166L27.84375,149.3803777286664L30.1640625,150.43420092840836L32.484375,149.09242918582996L34.8046875,150.40025660048008L37.125,149.4804059406387L39.4453125,150.2646765061143L41.765625,149.60290869997468L44.0859375,150.07318064326222L46.40625,149.6921756648744L48.7265625,150.01698464411186L51.04687499999999,148.74009080337842L53.36718750000001,149.21406898934688L55.6875,148.54288646538015L58.0078125,150.58154801001163L60.328125,149.51379051473396L62.6484375,149.89355619745317L64.96875,149.6586825567309L67.2890625,150.63832472587103L69.609375,149.01516309447663L71.92968750000001,150.21956141955235L74.25,150.95736480167847L76.5703125,148.8169707575762L78.890625,149.20300041017035L81.2109375,150.57020051566886L83.53125,150.14069099558046L85.8515625,148.93800157047394L88.171875,148.96003835366275L90.4921875,151.10611942972622L92.8125,149.46928358143546L95.1328125,148.38999361120145L97.453125,150.25339426100896L99.7734375,150.44552441510575L102.09374999999999,149.30270591953047L104.4140625,149.004130565634L106.73437500000001,150.3776346497352L109.0546875,148.72911336551007L111.375,149.20300041017035L113.6953125,149.71451308843072L116.015625,150.41156904648406L118.3359375,150.42288382214025L120.65625,149.71451308843072L122.9765625,148.83895510862067L125.296875,150.12943417897066L127.6171875,149.85994014035225L129.9375,150.69516017419366L132.2578125,150.41156904648406L134.578125,148.68524121829785L136.8984375,150.38894648316912L139.21875,149.16980804535405L141.5390625,149.05929958459097L143.85937500000003,150.5588553644696L146.1796875,151.41637185009773L148.5,149.03722690759042L150.8203125,149.94962603035998L153.140625,149.26944932056486L155.4609375,149.6586825567309L157.78125,148.61949077984053L160.1015625,149.6586825567309L162.421875,150.02821844302187L164.7421875,149.15874442319497L167.0625,150.27596510482937L169.38281249999997,149.004130565634L171.703125,150.01698464411186L174.0234375,149.98329300726738L176.34375,149.8487406920337L178.66406250000003,150.62696550043782L180.984375,149.6586825567309L183.3046875,151.63575169191483L185.625,149.62521384236186L187.9453125,150.23083671867855L190.265625,149.53605551744886L192.5859375,149.9945199188838L194.90625,149.16980804535405L197.2265625,149.70334324147242L199.546875,149.23621680016058L201.8671875,150.16321557823377L204.18749999999997,149.18086993907156L206.5078125,148.27016266739452L208.828125,149.004130565634L211.1484375,150.3098327072148L213.46875000000003,149.98329300726738L215.7890625,149.7815878999407L218.109375,150.77482707477355L220.4296875,149.46928358143546L222.75,150.197013730044L225.0703125,149.96084606394217L227.390625,149.08138508217164L229.7109375,149.13663176722713L232.03125,150.1181796682097L234.3515625,150.67242056543756L236.671875,150.95736480167847L238.99218749999997,149.26944932056486L241.3125,149.43592603163742L243.6328125,148.84995451672336L245.953125,149.8151520351394L248.27343750000003,149.46928358143546L250.59375,148.23752504078826L252.9140625,149.54719140321455" style="fill: none;" fill="none"></path></g></g></g></g></g></g><g transform="translate(51, 176)" clip-path="url(#clip_1)"><clipPath id="clip_1"><rect width="278" height="23"></rect></clipPath><g><g><line x1="0" y1="0" x2="0" y2="5" style="visibility: inherit;" fill="rgb(0, 0, 0)" stroke="rgb(204, 204, 204)" stroke-width="1px"></line><line x1="23.203125" y1="0" x2="23.203125" y2="5" style="visibility: inherit;" fill="rgb(0, 0, 0)" stroke="rgb(204, 204, 204)" stroke-width="1px"></line><line x1="46.40625" y1="0" x2="46.40625" y2="5" style="visibility: inherit;" fill="rgb(0, 0, 0)" stroke="rgb(204, 204, 204)" stroke-width="1px"></line><line x1="69.609375" y1="0" x2="69.609375" y2="5" style="visibility: inherit;" fill="rgb(0, 0, 0)" stroke="rgb(204, 204, 204)" stroke-width="1px"></line><line x1="92.8125" y1="0" x2="92.8125" y2="5" style="visibility: inherit;" fill="rgb(0, 0, 0)" stroke="rgb(204, 204, 204)" stroke-width="1px"></line><line x1="116.015625" y1="0" x2="116.015625" y2="5" style="visibility: inherit;" fill="rgb(0, 0, 0)" stroke="rgb(204, 204, 204)" stroke-width="1px"></line><line x1="139.21875" y1="0" x2="139.21875" y2="5" style="visibility: inherit;" fill="rgb(0, 0, 0)" stroke="rgb(204, 204, 204)" stroke-width="1px"></line><line x1="162.421875" y1="0" x2="162.421875" y2="5" style="visibility: inherit;" fill="rgb(0, 0, 0)" stroke="rgb(204, 204, 204)" stroke-width="1px"></line><line x1="185.625" y1="0" x2="185.625" y2="5" style="visibility: inherit;" fill="rgb(0, 0, 0)" stroke="rgb(204, 204, 204)" stroke-width="1px"></line><line x1="208.828125" y1="0" x2="208.828125" y2="5" style="visibility: inherit;" fill="rgb(0, 0, 0)" stroke="rgb(204, 204, 204)" stroke-width="1px"></line><line x1="232.03125" y1="0" x2="232.03125" y2="5" style="visibility: inherit;" fill="rgb(0, 0, 0)" stroke="rgb(204, 204, 204)" stroke-width="1px"></line><line x1="255.234375" y1="0" x2="255.234375" y2="5" style="visibility: inherit;" fill="rgb(0, 0, 0)" stroke="rgb(204, 204, 204)" stroke-width="1px"></line><line x1="278.4375" y1="0" x2="278.4375" y2="5" style="visibility: inherit;" fill="rgb(0, 0, 0)" stroke="rgb(204, 204, 204)" stroke-width="1px"></line></g><g transform="translate(0, 8)"><text x="0" y="0" dx="0em" dy="0.95em" style="text-anchor: middle; visibility: hidden; font-family: Roboto, sans-serif; font-size: 12px; font-weight: 200;" fill="rgb(255, 255, 255)" stroke="none" stroke-width="1px">-10</text><text x="23.203125" y="0" dx="0em" dy="0.95em" style="text-anchor: middle; visibility: inherit; font-family: Roboto, sans-serif; font-size: 12px; font-weight: 200;" fill="rgb(255, 255, 255)" stroke="none" stroke-width="1px">0</text><text x="46.40625" y="0" dx="0em" dy="0.95em" style="text-anchor: middle; visibility: inherit; font-family: Roboto, sans-serif; font-size: 12px; font-weight: 200;" fill="rgb(255, 255, 255)" stroke="none" stroke-width="1px">10</text><text x="69.609375" y="0" dx="0em" dy="0.95em" style="text-anchor: middle; visibility: inherit; font-family: Roboto, sans-serif; font-size: 12px; font-weight: 200;" fill="rgb(255, 255, 255)" stroke="none" stroke-width="1px">20</text><text x="92.8125" y="0" dx="0em" dy="0.95em" style="text-anchor: middle; visibility: inherit; font-family: Roboto, sans-serif; font-size: 12px; font-weight: 200;" fill="rgb(255, 255, 255)" stroke="none" stroke-width="1px">30</text><text x="116.015625" y="0" dx="0em" dy="0.95em" style="text-anchor: middle; visibility: inherit; font-family: Roboto, sans-serif; font-size: 12px; font-weight: 200;" fill="rgb(255, 255, 255)" stroke="none" stroke-width="1px">40</text><text x="139.21875" y="0" dx="0em" dy="0.95em" style="text-anchor: middle; visibility: inherit; font-family: Roboto, sans-serif; font-size: 12px; font-weight: 200;" fill="rgb(255, 255, 255)" stroke="none" stroke-width="1px">50</text><text x="162.421875" y="0" dx="0em" dy="0.95em" style="text-anchor: middle; visibility: inherit; font-family: Roboto, sans-serif; font-size: 12px; font-weight: 200;" fill="rgb(255, 255, 255)" stroke="none" stroke-width="1px">60</text><text x="185.625" y="0" dx="0em" dy="0.95em" style="text-anchor: middle; visibility: inherit; font-family: Roboto, sans-serif; font-size: 12px; font-weight: 200;" fill="rgb(255, 255, 255)" stroke="none" stroke-width="1px">70</text><text x="208.828125" y="0" dx="0em" dy="0.95em" style="text-anchor: middle; visibility: inherit; font-family: Roboto, sans-serif; font-size: 12px; font-weight: 200;" fill="rgb(255, 255, 255)" stroke="none" stroke-width="1px">80</text><text x="232.03125" y="0" dx="0em" dy="0.95em" style="text-anchor: middle; visibility: inherit; font-family: Roboto, sans-serif; font-size: 12px; font-weight: 200;" fill="rgb(255, 255, 255)" stroke="none" stroke-width="1px">90</text><text x="255.234375" y="0" dx="0em" dy="0.95em" style="text-anchor: middle; visibility: inherit; font-family: Roboto, sans-serif; font-size: 12px; font-weight: 200;" fill="rgb(255, 255, 255)" stroke="none" stroke-width="1px">100</text><text x="278.4375" y="0" dx="0em" dy="0.95em" style="text-anchor: middle; visibility: hidden; font-family: Roboto, sans-serif; font-size: 12px; font-weight: 200;" fill="rgb(255, 255, 255)" stroke="none" stroke-width="1px">110</text></g><line x1="0" y1="0" x2="278.4375" y2="0" fill="rgb(0, 0, 0)" stroke="rgb(204, 204, 204)" stroke-width="1px"></line></g></g></g></g></svg>